<svg id="Layer_1" xmlns="http://www.w3.org/2000/svg" viewBox="0 0 736 382"><style>.st0{fill:none;stroke:#e4eafa;stroke-width:3;stroke-miterlimit:10}.st1{fill:#e4eafa}.st3{fill:none;stroke:#ccd3e2;stroke-width:3;stroke-miterlimit:10}.st4{fill:#ccd3e2}</style><path class="st0" d="M1407.62 1268.27c.17 28.49-13.42 424.33-910.34 120.21-525.24-178.09-564.85 248.54-566.91 351.08"/><path transform="rotate(-89.922 1407.582 1268.275)" class="st1" d="M1405.98 1257.84h3.21v20.87h-3.21z"/><path class="st1" d="M-84.52 1735.21l15 25.88 14.92-25.92z"/><path class="st0" d="M-69.37 569.02c.38 24.21 24.36 312.91 957.95 171.32 487.59-73.95 513.64 230.88 511.61 315.92"/><path transform="rotate(-.922 -69.212 567.952)" class="st1" d="M-79.77 567.42h20.86v3.21h-20.86z"/><path class="st1" d="M1385.35 1051.04l13.48 26.71 16.39-25.03z"/><path class="st0" d="M-350.99 2084.77c.42 26.3 27.82 365.74 1172.62 193.71 552.01-82.95 616.26 267.77 623.65 359.59"/><path transform="rotate(-.81 -353.113 2083.74)" class="st1" d="M-361.39 2083.17h20.86v3.21h-20.86z"/><path class="st1" d="M1429.97 2634.47l16.26 25.12 13.62-26.63z"/><path class="st0" d="M723.19 3.6c.26 18.22-9.56 185.93-458.61 185.93-218.65 0-246.41 119.23-248.45 169.1"/><path transform="rotate(-1.146 722.936 3.46)" class="st1" d="M712.73 2h20.86v3.21h-20.86z"/><path class="st1" d="M1.33 354.58l15.51 25.58 14.4-26.22z"/><g><path class="st0" d="M1424.75 2821.91c.07 31.1-3 502.4-252.63 252.99-143.59-143.46-156.39 192.94-157.29 283.16"/><path transform="rotate(-89.284 1424.6 2821.927)" class="st1" d="M1423.12 2811.48h3.21v20.87h-3.21z"/><path class="st1" d="M999.95 3353.65l14.88 25.94 15.03-25.86z"/></g><g><path class="st0" d="M-193.79 2638.34c-1.83 37.96-29.18 736.99 452.96 501.57C495.74 3024.4 533.89 3280.36 540 3358.1"/><path transform="rotate(-87.53 -193.707 2638.337)" class="st1" d="M-195.38 2627.91h3.21v20.87h-3.21z"/><path class="st1" d="M524.67 3354.64l16.49 24.95 13.37-26.76z"/></g><g opacity=".69"><path class="st3" d="M594.71 3548.59c.27 24.84 14.87 328.83 573.76 211.5 261.14-54.82 299.18 167.47 304.69 239"/><path transform="rotate(-.676 593.117 3539.288)" class="st4" d="M584.3 3546.99h20.87v3.21H584.3z"/><path class="st4" d="M1457.83 3995.49l16.25 25.11 13.63-26.63z"/><g><path class="st3" d="M594.16 3548.59c-.27 24.84-14.87 328.83-573.76 211.5-261.14-54.82-299.18 167.47-304.69 239"/><path transform="rotate(-89.324 594.22 3548.745)" class="st4" d="M592.53 3538.16h3.21v20.86h-3.21z"/><path class="st4" d="M-298.84 3993.97l13.63 26.63 16.25-25.11z"/></g><g><path class="st3" d="M594.71 3550.65v432.77"/><path class="st4" d="M579.75 3979.04l14.96 25.9 14.96-25.9z"/></g></g><g><path class="st3" d="M589.84 4215.27c.84 17.65 23.72 174.15 573.73 112.38 241.61-27.13 292.25 72.63 302.83 118"/><path transform="rotate(-1.985 591.108 4210.5)" class="st4" d="M579.44 4213.67h20.87v3.21h-20.87z"/><path class="st4" d="M1450.62 4443.54l18.57 23.46 11.03-27.8z"/></g><g><path class="st3" d="M589.26 4213.67s8.75 179.39-573.75 113.98c-241.61-27.13-292.25 72.63-302.83 118"/><path class="st4" d="M-301.14 4439.2l11.04 27.8 18.56-23.46z"/></g><g><path class="st3" d="M590.5 4215.33s-25.76 151.56 261.78 151.56c101.11 0 128.87 49.36 136.44 78.77"/><path class="st4" d="M972.86 4443.6l18.64 23.4 10.95-27.84z"/></g><g><path class="st3" d="M588.34 4215.33s23.78 151.56-241.7 151.56c-93.33 0-118.97 49.34-125.97 78.74"/><path class="st4" d="M206.84 4439.28l11.25 27.72 18.38-23.6z"/></g></svg>