<svg id="Layer_1" xmlns="http://www.w3.org/2000/svg" viewBox="0 0 1770.73 1770.73"><style>.st0{fill:#88b3ff}.st1{fill:#fff}.st2{fill:#eaeaea}.st3{fill:#6fdeb5}.st4{fill:none}</style><circle class="st0" cx="-1641.76" cy="888.81" r="874.2"/><path class="st1" d="M-1852.26 716.39h629.23l-86.36 395.25h-440.69l-77.5-325.5"/><path d="M-1265.54 1133.86h-476.28c-10.14 0-19-6.87-21.52-16.69l-83.77-325.5 43.05-11.08 79.47 308.81h441.46l82.85-350.8h-651.98a22.23 22.23 0 0 1-20.03-12.59l-55.7-115.7h-92.71v-44.45h106.68c8.54 0 16.32 4.89 20.03 12.59l55.7 115.7h666.1c6.79 0 13.21 3.11 17.43 8.43a22.183 22.183 0 0 1 4.2 18.9l-93.34 395.25c-2.38 10.05-11.33 17.13-21.64 17.13z"/><circle class="st1" cx="-1648.82" cy="1258.09" r="69.75"/><path d="M-1648.82 1350.07c-50.72 0-91.98-41.26-91.98-91.98 0-50.71 41.26-91.97 91.98-91.97s91.98 41.26 91.98 91.97c-.01 50.72-41.27 91.98-91.98 91.98zm0-139.5c-26.2 0-47.53 21.32-47.53 47.52s21.32 47.53 47.53 47.53c26.2 0 47.53-21.32 47.53-47.53s-21.33-47.52-47.53-47.52z"/><circle class="st1" cx="-1369.82" cy="1258.09" r="69.75"/><path d="M-1369.82 1350.07c-50.71 0-91.97-41.26-91.97-91.98 0-50.71 41.26-91.97 91.97-91.97 50.72 0 91.98 41.26 91.98 91.97-.01 50.72-41.27 91.98-91.98 91.98zm0-139.5c-26.2 0-47.52 21.32-47.52 47.52s21.31 47.53 47.52 47.53c26.2 0 47.53-21.32 47.53-47.53s-21.33-47.52-47.53-47.52z"/><path transform="rotate(-11.304 -1671.431 914.398)" d="M-1686.06 789.42h29.63v249.33h-29.63z"/><path transform="rotate(-77.912 -1329 905.937)" d="M-1445.65 891.12h233.37v29.64h-233.37z"/><path d="M-1466.03 791.85h29.63v228.19h-29.63z"/><g><path d="M-1563.82 791.85h29.63v228.19h-29.63z"/></g><g><path class="st1" d="M-1950.33 620.71h-158.99c-1.1 0-2-.9-2-2v-61.2c0-1.1.9-2 2-2h158.99c1.1 0 2 .9 2 2v61.2a2 2 0 0 1-2 2z"/><path d="M-1977.96 642.93h-103.72c-28.59 0-51.86-23.26-51.86-51.86v-5.93c0-28.6 23.27-51.86 51.86-51.86h103.72c28.59 0 51.86 23.26 51.86 51.86v5.93c-.01 28.6-23.27 51.86-51.86 51.86zm-103.72-65.19c-4.09 0-7.41 3.32-7.41 7.41v5.93c0 4.08 3.32 7.41 7.41 7.41h103.72c4.09 0 7.41-3.32 7.41-7.41v-5.93c0-4.08-3.32-7.41-7.41-7.41h-103.72z"/></g><g><path class="st1" d="M-1661.69 676.9c-13.59-23.8-21.36-51.35-21.36-80.72 0-90.02 72.97-162.99 162.99-162.99 90.02 0 162.99 72.97 162.99 162.99 0 28.99-7.57 56.22-20.84 79.8"/><path d="M-1680.99 687.93c-15.89-27.81-24.29-59.54-24.29-91.75 0-102.13 83.08-185.22 185.21-185.22s185.21 83.09 185.21 185.22c0 31.78-8.19 63.15-23.69 90.7l-38.74-21.79c11.76-20.92 17.98-44.74 17.98-68.91 0-77.62-63.15-140.76-140.76-140.76s-140.76 63.15-140.76 140.76c0 24.49 6.37 48.59 18.43 69.7l-38.59 22.05z"/></g><g><path d="M-1503.26 627.77v49.98h-33.22v-49.98h-68.74V597.6h68.74v-74.45h33.22v74.45h68.34v30.17h-68.34z"/></g><g><circle class="st0" cx="7027.91" cy="5030.41" r="885.37"/><path class="st1" d="M7236.3 4792.25h-18.94v113.67h18.94c31.39 0 56.83-25.44 56.83-56.83s-25.46-56.84-56.83-56.84zM6762.69 4849.08c0 31.39 25.44 56.83 56.83 56.83h18.94v-113.67h-18.94c-31.38.01-56.83 25.45-56.83 56.84zM7236.3 4729.62l22.35-85.73c7.33-32.54-22.13-63.34-65.77-68.81-4.43-.55-8.92-.82-13.41-.82-11.33-25.28-43.06-42.34-78.81-42.37l-195.04-10.08-9.32 10.08h-19.94l-37.89-42.37-18.94 14.12c-52.3 39-52.32 102.21-.04 141.21.02.01.02.03.04.03H7191l45.3 84.74zM7223.58 5226.13l-122.73-15.79-115.28 62.04-115.28-61.4-122.73 15.79c-67 8.35-117.14 61.5-117.48 124.54v173.64h710.97v-173.64c.01-63.27-50.22-116.79-117.47-125.18z"/><path class="st1" d="M7156.92 5188.26l-15.34-1.73v-72.17l-85.35 30.02h-45.02l-96.96-30.02v72.17l-15.35 1.73 129.01 61.19z"/><path class="st2" d="M6914.25 5360.58l113.66-75.78-113.66-75.78h-37.89zM7027.91 5284.8l113.67 75.78 37.89-151.56h-37.89z"/><path class="st1" d="M7237.99 4786.02l-1.5 99.35c-.76 49.17-11.79 97.34-32.08 140.03-26.63 55.99-76.05 90.22-129.11 89.4-53.06-.78-101.43-36.48-126.36-93.26-18.99-43.28-28.57-91.76-27.84-140.93l3.08-203.92 258.05 3.89 55.76 105.44z"/><path d="M7236.3 4924.86h-18.94v-37.89h18.94c20.9 0 37.89-16.99 37.89-37.89s-16.99-37.89-37.89-37.89h-18.94v-37.89h18.94c41.79 0 75.78 33.99 75.78 75.78s-33.99 75.78-75.78 75.78zM6838.47 4924.86h-18.94c-41.79 0-75.78-33.99-75.78-75.78s33.99-75.78 75.78-75.78h18.94v37.89h-18.94c-20.9 0-37.89 16.99-37.89 37.89s16.99 37.89 37.89 37.89h18.94v37.89zM7035.61 4939.49h-39.97c-4.18 0-8.11-1.96-10.63-5.3a13.273 13.273 0 0 1-2.17-11.68l26.65-93.26 25.62 7.33-21.81 76.27h22.3v26.65h.01z"/><path d="M7027.95 5171.13h-.11c-76.91 0-147.92-41.75-185.29-109.02-27.45-49.39-41.96-105.37-41.98-161.86v-221.67c0-10.46 8.49-18.94 18.94-18.94h341c6.33 0 12.24 3.16 15.76 8.43l75.78 113.67c2.06 3.11 3.18 6.76 3.18 10.51v107.98c-.02 56.49-14.55 112.47-41.98 161.88-37.36 67.25-108.37 109.02-185.3 109.02zm-.06-37.88h.04c63.2 0 121.51-34.31 152.2-89.53 24.32-43.8 37.19-93.41 37.21-143.5v-102.24l-66.97-100.44h-311.9v202.7c.02 50.09 12.88 99.7 37.21 143.48 30.69 55.24 89 89.53 152.18 89.53h.03z"/><path d="M7012.19 5038.53h-22.16v-37.89h22.16c29.5-.02 57.23-11.5 78.11-32.36l26.79 26.81c-28.04 28-65.29 43.42-104.9 43.44z"/><circle cx="6925.63" cy="4830.14" r="29.12"/><circle cx="7100.34" cy="4830.14" r="29.12"/><path d="M7254.98 4814.32l-37.38-6.23 22.35-133.94c2.71-16.14-1.02-32.36-10.51-45.66-9.49-13.3-23.59-22.13-39.71-24.84-3.37-.57-7.2-.98-10.25-.83h-.04c-8.15 0-15.4-5.21-17.96-12.94-8.77-26.24-33.23-43.88-60.87-43.91H6940.5c-2.41 0-4.73-.94-6.47-2.61l-22.62-26.41c-1.78-1.72-4.72-1.24-5.87.95l-10.07 23.89a7.816 7.816 0 0 1-6.91 4.19h-12.2c-6.33 0-12.24-3.16-15.76-8.43l-25.08-37.6-2.61 2.6c-21.71 21.71-33.68 50.6-33.68 81.31 0 30.73 11.95 59.6 33.66 81.31l-26.77 26.82c-59.62-59.64-59.62-156.63 0-216.23l18.94-18.94c4.02-4 9.62-6.04 15.27-5.46 5.65.55 10.74 3.62 13.89 8.34l32.28 48.4 6.1-33.13c.78-4.22 6.07-5.71 8.94-2.52l31.96 35.65h167.17c39.57.04 75.02 22.75 91.88 57.67 1.17.15 2.31.32 3.49.51 26.12 4.38 48.95 18.66 64.32 40.22s21.41 47.8 17.01 73.9l-22.39 133.92zM6649.03 5587.91h-37.89v-208.39c0-85.06 63.58-157.71 147.92-169l136.25-18.09v-78.13h37.89v94.72c0 9.49-7.03 17.52-16.44 18.77l-152.69 20.27c-65.57 8.77-115.03 65.26-115.03 131.44v208.41zM7444.69 5587.91h-37.89v-208.39c0-66.17-49.44-122.68-115.05-131.44l-152.67-20.27c-9.42-1.25-16.44-9.28-16.44-18.77v-94.72h37.89v78.13l136.23 18.09c84.34 11.27 147.94 83.94 147.94 169v208.37h-.01z"/><path d="M6762.77 5436.35h37.89v151.55h-37.89zM7255.32 5436.35h37.89v151.55h-37.89zM6914.25 5379.52c-2.31 0-4.62-.42-6.84-1.27a18.963 18.963 0 0 1-11.54-13.07l-37.89-151.55 36.75-9.17 31.37 125.47 91.29-60.87 21.01 31.52-113.67 75.78c-3.13 2.1-6.81 3.16-10.48 3.16z"/><path d="M7027.91 5303.74c-3.24 0-6.48-.83-9.4-2.5l-132.61-75.78 18.79-32.89 123.21 70.42 123.21-70.42 18.79 32.89-132.61 75.78c-2.9 1.67-6.14 2.5-9.38 2.5z"/><path d="M7141.58 5379.52c-3.68 0-7.35-1.08-10.51-3.18l-113.67-75.78 21.01-31.52 91.29 60.87 31.37-125.47 36.73 9.17-37.89 151.55a18.919 18.919 0 0 1-11.54 13.07c-2.17.87-4.48 1.29-6.79 1.29zM6610.29 5579.55h835.25v30.01h-835.25z"/></g><circle class="st3" cx="-1652.92" cy="-3263.63" r="885.37"/><g><path class="st1" d="M-2198.66-3601.27h1080.44l-540.22 315.13z"/><path class="st1" d="M-1113.18-3038.54h-1079.47c-16.84 0-30.5-13.65-30.5-30.5v-501.73c0-16.84 13.65-30.5 30.5-30.5l534.22 405.17 545.26-405.17c16.84 0 30.5 13.65 30.5 30.5v501.73c-.01 16.84-13.67 30.5-30.51 30.5z"/><path d="M-1113.18-2903.48h-1079.48c-29.23 0-53.01-23.78-53.01-53.01v-614.28c0-29.23 23.78-53.01 53.01-53.01h1079.48c29.23 0 53.01 23.78 53.01 53.01v614.28c-.01 29.23-23.78 53.01-53.01 53.01zm-1079.48-675.28c-4.4 0-7.99 3.58-7.99 7.99v614.28c0 4.41 3.58 7.99 7.99 7.99h1079.48c4.4 0 7.99-3.58 7.99-7.99v-614.28c0-4.41-3.58-7.99-7.99-7.99h-1079.48z"/><path d="M-1656.76-3172.49l-556.75-387.8 25.73-36.95 531.2 370.01 538.64-370.09 25.5 37.11z"/><path transform="rotate(-38.399 -1995.104 -3108.612)" d="M-2269.14-3131.01h547.9v45.02h-547.9z"/><path transform="rotate(-51.611 -1304.728 -3108.392)" d="M-1327.41-3382.45h45.02v547.9h-45.02z"/></g><g><circle class="st3" cx="-1641.64" cy="-1178.06" r="874.08"/><path class="st1" d="M-2009.16-1401.13c-55.14 2.27-94.91 35.81-98.28 82.22-1.42 19.6-1.36 39.39.01 59 2.72 39.09 31.87 72.27 76.53 78.66 40.18 5.75 81.83 4.15 124 5.84v-225.97c-35.94 0-69.17-1.11-102.26.25zM-1340.95-1309.82v80.53c26.76-7.24 36.61-20.27 38.07-36.52 1.68-18.59-9.24-32.99-38.07-44.01zM-1411.6-1511.57c-135.4 72.62-275.15 120.83-436.75 108.52 0 77.17-.05 155.35-.05 224.7 86.78 6.25 157.34 7.72 234 18.65 74.05 10.57 139.94 39.73 202.72 77.41 4.81 2.89 11.48-.01 11.48-4.99v-418.99c0-4.94-6.46-7.95-11.4-5.3z"/><path d="M-1323.94-1363.7c-15.52-6.52-19.07-14.47-18.89-29.55.68-55.84 1.06-111.71-.4-167.52 0-16.56-6.05-29.38-14.41-33.26-9.85-4.56-27.05-.31-37.94 5.74-31.27 17.38-60.49 38.39-91.36 56.54-103.11 60.61-212 99.63-334.35 93.43-59.86-3.04-120.01-1.05-180.02-.34-83.77.98-149.03 56.63-160.89 138.95-3.89 26.99-2.28 54.91-1.78 82.37 1.61 88.01 58.14 155.95 146.45 158.61 12.82.08 2.46.08 14.58-.04 17.22-.7 26.62 4.09 33.5 21.36 33.3 83.56 68.24 166.47 102.56 249.62 7.58 18.36 99.42 34.57 122.17 25.23 22.35-9.18 19.79-27.73 11.89-46.49-16.15-38.39-32.08-76.87-47.97-115.36-17.72-42.92-35.95-88.37-54.79-134.23 9.86.49 11.6.33 14.82.37 26.67.3 53.4-.29 79.99 1.4 130.22 8.28 248.94 44.75 341.87 142.54 10.73 11.29 24.24 16.49 37.75 14.14 15.17-2.64 17.13-24.06 17.57-36.86 1.89-54.95 1.34-110.01.49-165.01-.25-16.18 3.84-24.34 20.1-31.31 49.86-21.39 77.01-61.52 76.86-115.51-.13-54.09-27.76-93.79-77.8-114.82zm-582.96 250.35c-42.17-2-83.83-.1-124-6.91-44.66-7.57-73.81-46.85-76.53-93.14-1.37-23.22-1.43-46.65-.01-69.86 3.37-54.95 43.14-94.67 98.28-97.36 33.09-1.61 66.33-.3 102.26-.3v267.57zm506.7 104.35c0 5.91-6.67 9.33-11.48 5.91-62.78-44.62-128.68-79.15-202.72-91.66-76.67-12.95-147.23-14.69-234-22.09 0-82.11.05-174.69.05-266.06 161.6 14.58 301.34-42.51 436.75-128.5 4.94-3.14 11.4.42 11.4 6.27V-1009zm97.32-234.86c-1.47 24.36-11.31 43.89-38.07 54.74v-120.7c28.83 16.52 39.75 38.1 38.07 65.96zM-1079.23-1134.94c-33.78-13.63-67.57-27.57-101.48-41.12-17.9-7.15-31.83-2-38.95 15.04-7.63 18.29 2.62 30.28 19.12 37.02 29.2 11.93 58.63 23.31 88.06 34.67 7.67 2.96 4.14 1.84 17.45 6.03 18.24 4.93 31.99-11.98 32.4-20.6.5-10.39 5.07-22.3-16.6-31.04zM-1179.83-1320.95c44.29-18.55 69.75-27.56 109.91-46.88 5.9-2.84 11.87-16.23 5.62-30.17-6.84-15.25-21.62-17.45-29.6-14.9-38.65 12.36-76.67 27.24-113.46 44.36-7.57 3.52-15.38 18.01-11.83 30.88 2.27 8.23 13.72 24.6 39.36 16.71zM-1077.28-1275.35c-36.64-.82-67.05-.67-103.69-.16-16.48.23-27.08 9.63-27.63 26.21-.59 17.94 10.49 27.82 27.79 28.87 17.43 1.06 91.04-1.1 109.65-1.1 21.99 0 26.38-15.98 26.02-26.99-.58-18.2-15.71-26.46-32.14-26.83z"/></g><circle class="st0" cx="883.63" cy="882.39" r="877.38"/><g><path class="st4" d="M766.27 1056.85c-17.83-6.22-39.88 2.69-51.42 18.67-9.48 13.1-11.17 29.85-3.52 42.52 1.03-2.09 2.18-4.14 3.52-6.1 9.02-13.24 24.46-21.91 39.29-21.91 4.14 0 8.23.68 12.13 2.11 3.78 1.39 7.65 2.06 11.46 2.06 14.23 0 27.76-9.2 33.1-23.93 3.74-10.3 2.55-21.06-2.14-29.81-8.14 14.76-26.1 22.08-42.42 16.39zM806.13 917.77c-19.87.29-37.02 14.98-39.92 32.61-1.15 7.03-.24 14.22 2.31 20.77 5.87-14.87 20.71-26.21 37.61-26.47 19.85-.33 35.68-16.75 35.33-36.69-.07-4.26-1-8.27-2.42-12.05-5.11 12.57-17.82 21.59-32.91 21.83zM785.51 772.53c-11.82 4.71-19.98 15.91-22.56 28.34-1.09 5.47-1.26 11.09-.09 16.44.14.62.42 1.2.58 1.81 2.92-12.52 10.74-23.66 22.07-28.44 14.71-6.23 21.99-23.2 18.24-40.12-2.2 9.77-8.54 18.1-18.24 21.97zM1109.82 529.26a34.441 34.441 0 0 1 19.37-5.92c14.35 0 26.66 8.72 31.92 21.16 1.43 3.39 2.18 7.11 2.47 10.95.06-.8.26-1.57.26-2.39 0-18.04-15.51-32.67-34.64-32.67-19.13 0-34.64 14.62-34.64 32.67 0 .82.19 1.58.26 2.39.46-6.19 2.38-11.97 5.66-16.83 2.48-3.69 5.66-6.87 9.34-9.36z"/><path class="st4" d="M1304.23 1248.29H463.02c-29.98 0-54.27-22.92-54.27-51.19V525.72v713.34c0 29.98 24.3 54.28 54.27 54.28h841.21c29.98 0 54.27-24.3 54.27-54.28v-41.96c.01 28.28-24.29 51.19-54.27 51.19zM981.13 533.49c3.14-3.13 6.87-5.67 11.01-7.42a34.79 34.79 0 0 1 6.5-2.02c2.25-.46 4.59-.7 6.98-.7 4.78 0 9.34.97 13.48 2.72a34.768 34.768 0 0 1 18.44 18.44c1.44 3.39 2.19 7.11 2.47 10.95.06-.8.26-1.57.26-2.39 0-18.04-15.52-32.67-34.64-32.67-19.13 0-34.64 14.62-34.64 32.67 0 .82.19 1.59.25 2.39.28-3.84 1.03-7.56 2.47-10.95 1.74-4.15 4.28-7.89 7.42-11.02z"/><path class="st4" d="M725.87 676.34c-.62 2.68-.11 7.45 3.4 12.12 1.74 2.31 4.17 4.35 6.96 5.87 1.07.23 2.15.34 3.18.34 1.55 0 3-.26 4.19-.74a61.65 61.65 0 0 1 23.29-4.54c26.69 0 50.98 16.52 61.88 42.11 6.77 15.93 7.57 33.45 2.27 49.32-5.66 16.93-18.02 30.51-33.96 37.27-1.49.63-4.01 3.64-4.89 8.11-.59 3.16-.38 5.1-.21 5.93 1.13 5.47 7.11 10.64 12.42 10.64.16 0 .9-.01 1.06-.01 35.64 0 65.12 29.04 65.73 64.72.3 17.57-6.23 34.21-18.41 46.85-12.2 12.66-28.59 19.8-46.2 20.1-5.38.08-10.32 5.12-10.98 9.39-.83 5.37 1.8 11.51 5.48 12.87 33.15 12.21 50.07 49.79 37.72 83.74-9.44 26.04-33.98 43.53-61.06 43.53-7.44 0-14.77-1.31-21.78-3.9-.48-.18-1.09-.27-1.81-.27-4.19 0-10.78 3.12-14.74 8.94-3.6 5.27-4.34 11.97-1.62 14.63 5.51 5.39 8.27 12.59 8.6 19.98H988.2c-.35-.57-.8-1.09-1.13-1.66-18.27-31.51-10.83-70.63 16.91-89.05.75-.57 2.85-3.81 3.03-9.01.06-2.61-.24-5-.82-6.68-1.79-5.12-6.78-8.27-10.15-8.27h-.07c-3.55.64-7.18.96-10.77.96-31.03 0-57.34-23.17-62.56-55.07-5.85-35.56 17.09-69.46 51.16-75.57 3.19-.57 7.07-5.6 7.05-10.7-.02-6.8-4.1-11.83-5.93-12.24-32.67-7.32-54.12-41.65-47.82-76.5 5.56-30.93 31.08-53.38 60.68-53.38 4.28 0 8.59.48 12.69 1.4 1.77 0 7.53-3.01 10.65-10.1 3.21-7.29 1.79-14.52-.59-16.28-22.22-16.41-30.3-45.25-22.03-71.76H726.62c.01 2.3-.22 4.62-.75 6.91zM696.9 669.58h-.69c.08.97.23 1.93.37 2.9.16-.96.1-1.96.32-2.9zM1250.6 695.78c-93.54 50.25-141.89 156.33-123.19 270.27 17 103.65 96.27 154.91 129.57 172.14.73.38 1.37.86 2.06 1.3V688.92c-2.34 2.72-5.14 5.09-8.44 6.86z"/><path class="st4" d="M1094.07 903.83c4.46-103.3 59.66-189.77 142.45-234.25h-19.93c-78.11 48.35-126.66 134.32-122.52 234.25zM526.59 1163.33h189.34c-9.44-10.18-11.6-24.67-7.46-38.13H584.9a283.723 283.723 0 0 1-58.31 38.13zM653.21 903.87c-1.72-100.43-73.7-173.24-140.49-207.89-1.61-.84-3.1-1.82-4.5-2.9v446.51c1-.64 1.99-1.29 3.08-1.81 90.63-43.35 143.68-130.79 141.91-233.91zM478.48 630.11h810.3v9.57h-810.3zM1239.28 526.07c4.15-1.75 8.7-2.72 13.49-2.72 9.56 0 18.22 3.88 24.49 10.15 1.57 1.57 2.99 3.28 4.23 5.13 3.29 4.86 5.21 10.64 5.66 16.84.06-.8.26-1.57.26-2.39 0-18.04-15.51-32.67-34.64-32.67-19.13 0-34.65 14.62-34.65 32.67 0 .82.19 1.59.25 2.39.28-3.84 1.03-7.56 2.47-10.95a34.685 34.685 0 0 1 18.44-18.45zM1304.23 471.46c.05 0 .09.01.14.01-.04 0-.09-.01-.14-.01H463.02c-.05 0-.11.01-.16.01.05 0 .11-.01.16-.01h841.21zM981.43 844.52c-11.89-2.52-20.79-11.75-24.14-23.2-.32 1.15-.7 2.27-.92 3.48-3.52 19.46 7.73 38.33 25.05 42.21 13.23 2.95 23.17 14.37 27.19 28.01 1.25-3.76 2-7.69 1.98-11.68-.06-17.82-11.83-35.17-29.16-38.82zM1185.42 1125.19h-153.94c-7.53-3.94-14.36-9.81-18.68-16.84-.38-.61-.6-1.27-.95-1.89-6.71 11.09-6.8 26.93.95 40.29 3.93 6.77 9.97 12.45 16.68 16.57h211.5a293.221 293.221 0 0 1-55.56-38.13zM1034.26 1014.36c-6.43-17.31-25.39-29.21-43.55-26.13-15.35 2.6-29.98-6-36.14-19.86-2.77 6.42-3.83 13.79-2.59 21.34 2.88 17.64 17.16 30.16 33.21 30.16 1.82 0 3.66-.16 5.51-.49 1.93-.34 3.87-.51 5.8-.51 15.62 0 30.68 10.96 36.94 26.38 1.85-4.6 3.11-9.52 3.29-14.64.15-5.53-.58-11.11-2.47-16.25zM1028.21 703.28c-6.98-4.86-11.22-12-12.67-19.83-2.15 12.92 2.2 26.07 12.67 33.8 7.56 5.59 12.11 14 13.77 23.29 2.43-14.3-1.95-29.01-13.77-37.26z"/><path class="st1" d="M1304.38 471.47c-.05 0-.09-.01-.14-.01H463.02c-.05 0-.11.01-.16.01-29.9.09-54.11 24.33-54.11 54.25v671.38c0 28.28 24.3 51.19 54.27 51.19h841.21c29.98 0 54.27-22.92 54.27-51.19V525.73c.01-29.93-24.21-54.18-54.12-54.26zm-86.27 86.52c0-.87.19-1.68.25-2.53-.06-.8-.25-1.57-.25-2.39 0-18.04 15.52-32.67 34.65-32.67s34.64 14.62 34.64 32.67c0 .82-.19 1.59-.26 2.39.06.85.26 1.67.26 2.53 0 7.17-2.18 13.84-5.92 19.37a34.642 34.642 0 0 1-4.23 5.13c-6.27 6.27-14.93 10.15-24.49 10.15-4.78 0-9.34-.97-13.49-2.72a34.75 34.75 0 0 1-18.44-18.43 34.77 34.77 0 0 1-2.72-13.5zm-123.56-4.93c0-18.04 15.51-32.67 34.64-32.67 19.13 0 34.64 14.62 34.64 32.67 0 .82-.19 1.59-.26 2.39.06.85.26 1.67.26 2.53 0 4.78-.97 9.34-2.72 13.48-5.26 12.43-17.57 21.16-31.92 21.16-7.17 0-13.84-2.18-19.37-5.91a34.734 34.734 0 0 1-9.36-9.36 34.519 34.519 0 0 1-5.92-19.37c0-.87.19-1.68.26-2.54-.06-.79-.25-1.56-.25-2.38zm-123.57 4.93c0-.87.19-1.68.25-2.53-.06-.8-.25-1.57-.25-2.39 0-18.04 15.52-32.67 34.64-32.67s34.64 14.62 34.64 32.67c0 .82-.19 1.59-.26 2.39.06.85.26 1.67.26 2.53 0 4.78-.97 9.34-2.72 13.48a34.75 34.75 0 0 1-18.44 18.43c-4.14 1.75-8.7 2.72-13.48 2.72-2.39 0-4.72-.24-6.98-.7a34.594 34.594 0 0 1-17.51-9.44 34.734 34.734 0 0 1-7.43-11.01c-1.75-4.15-2.72-8.7-2.72-13.48zm317.8 81.69v553.39h-37.14c-2.66.78-5.44 1.28-8.32 1.28h-211.83c-2.82 0-5.59-.5-8.28-1.28H725.5c-2.72.81-5.57 1.28-8.51 1.28H524.14c-2.88 0-5.65-.5-8.31-1.28h-37.35V630.11h810.3v9.57z"/><path class="st1" d="M762.95 800.88c2.58-12.44 10.74-23.64 22.56-28.34 9.7-3.88 16.03-12.2 18.24-21.97-.55-2.49-1.33-4.99-2.37-7.44-6.32-14.83-20.32-24-34.51-24-4.08 0-8.17.76-12.1 2.35-4.92 1.99-10.16 2.92-15.38 2.92-4.65 0-9.28-.74-13.66-2.11-7.81-3.49-14.98-8.93-20.27-15.98-7.58-10.07-10.64-22.46-8.89-33.83-.15-.97-.3-1.93-.37-2.9H526.4c79.25 41.12 154.65 124.04 156.53 233.78 1.58 92.07-36.72 169.92-98.05 221.84h123.57c.75-2.44 1.72-4.82 2.86-7.15-7.65-12.66-5.96-29.42 3.52-42.52 11.54-15.98 33.59-24.89 51.42-18.67 16.32 5.69 34.28-1.63 42.43-16.38-3.82-7.12-9.9-12.94-17.91-15.89-17.84-6.6-27.49-26.63-24.59-45.33.43-2.8 1.28-5.49 2.31-8.1-2.55-6.55-3.47-13.74-2.31-20.77 2.9-17.62 20.05-32.32 39.92-32.61 15.09-.24 27.8-9.27 32.91-21.83-5.14-13.68-18.21-23.44-33.57-23.44h-.58c-.2.01-.4.01-.6.01-19.62 0-37.47-15.34-41.42-34.34-1.17-5.67-.99-11.63.09-17.43.11-.56.37-1.06.5-1.61-.17-.61-.45-1.19-.58-1.81-1.15-5.36-.98-10.98.1-16.45zM1031.48 1125.19h153.94c-42.6-37.13-76.62-88.88-87.36-154.33-3.77-22.95-4.92-45.34-3.99-67.04-4.14-99.93 44.41-185.9 122.52-234.25h-196.06c-2.59 4.41-4.2 9.13-4.99 13.88 1.45 7.82 5.69 14.97 12.67 19.83 11.82 8.25 16.2 22.96 13.77 37.27 1.68 9.38.43 19.66-3.64 28.9-7.12 16.17-22.5 27.85-37.87 27.85-2.14 0-4.27-.23-6.39-.7-2.12-.48-4.23-.7-6.3-.7-13.9 0-26.32 10.26-30.49 25.42 3.35 11.45 12.24 20.69 24.14 23.2 17.34 3.65 29.1 21 29.16 38.82.02 4-.73 7.92-1.98 11.68 1.25 4.24 1.96 8.67 1.98 13.15.08 18.9-13.39 36.84-31.56 40.07-11.17 2.01-20.02 9.84-24.45 20.12 6.16 13.86 20.79 22.46 36.14 19.86 18.16-3.08 37.12 8.82 43.55 26.13 1.9 5.14 2.62 10.72 2.48 16.25-.18 5.12-1.45 10.04-3.29 14.64.25.62.59 1.21.81 1.84 1.9 5.45 2.62 11.37 2.48 17.23-.45 13.45-6.21 26.37-16.3 33.06-3.54 2.35-6.41 5.47-8.59 9.08.34.62.57 1.28.95 1.89 4.32 7.04 11.14 12.91 18.67 16.85zM1252.76 523.34c9.56 0 18.22 3.88 24.49 10.15-6.26-6.27-14.92-10.15-24.49-10.15zM1287.4 557.99c0-.87-.19-1.68-.25-2.53-.46-6.19-2.38-11.97-5.66-16.84a34.51 34.51 0 0 1 5.91 19.37zM1247.86 557.99c0 2.7 2.2 4.9 4.91 4.9 2.7 0 4.89-2.2 4.89-4.9s-2.19-4.9-4.89-4.9a4.91 4.91 0 0 0-4.91 4.9zM1220.84 571.47c-1.75-4.15-2.72-8.7-2.72-13.48-.01 4.78.96 9.33 2.72 13.48zM1252.77 592.63c9.56 0 18.22-3.88 24.49-10.15-6.27 6.27-14.93 10.15-24.49 10.15zM1129.19 562.88c2.7 0 4.9-2.2 4.9-4.9s-2.2-4.9-4.9-4.9-4.9 2.2-4.9 4.9c0 2.71 2.2 4.9 4.9 4.9zM1129.19 523.34c-7.17 0-13.84 2.18-19.37 5.92 5.53-3.73 12.2-5.92 19.37-5.92zM1129.19 592.63c-7.17 0-13.84-2.18-19.37-5.91 5.53 3.72 12.2 5.91 19.37 5.91zM1163.83 557.99zM1005.62 562.88c2.7 0 4.9-2.2 4.9-4.9s-2.2-4.9-4.9-4.9-4.9 2.2-4.9 4.9c0 2.71 2.2 4.9 4.9 4.9zM998.64 524.05c2.25-.46 4.59-.7 6.98-.7-2.39-.01-4.72.24-6.98.7zM1040.26 557.99c0-.87-.19-1.68-.25-2.53-.28-3.84-1.03-7.56-2.47-10.95 1.75 4.14 2.72 8.69 2.72 13.48zM992.14 526.07zM1005.62 592.63c-2.39 0-4.72-.24-6.98-.7 2.26.45 4.59.7 6.98.7zM973.7 571.47a34.596 34.596 0 0 0 0 0zM992.14 589.9a34.594 34.594 0 0 1-11.01-7.42 34.43 34.43 0 0 0 11.01 7.42z"/><path d="M1243.31 1164.61c-.78-.41-1.55-.87-2.33-1.28h-211.5c.68.41 1.32.9 2.01 1.28h211.82z"/><path d="M1304.23 441.71H463.02c-46.33 0-84.02 37.69-84.02 84.02v713.33c0 46.33 37.69 84.02 84.02 84.02h841.21c46.33 0 84.02-37.69 84.02-84.02V525.73c0-46.33-37.69-84.02-84.02-84.02zm54.28 755.39v41.96c0 29.98-24.29 54.28-54.27 54.28H463.02c-29.98 0-54.27-24.3-54.27-54.28V525.73v-.01c.01-29.92 24.22-54.16 54.11-54.25.05 0 .11-.01.16-.01h841.21c.05 0 .09.01.14.01 29.92.08 54.13 24.33 54.13 54.26v671.37z"/><path d="M524.14 1164.61h192.85c-.4-.4-.68-.87-1.06-1.28H526.59c-.83.4-1.62.88-2.45 1.28zM988.2 1163.33H746.39c.19 4.2-.21 8.46-1.86 12.51-3.46 8.47-10.55 14.69-19.03 17.23h297.7c-2.12-.61-4.2-1.37-6.14-2.45-11.92-6.61-22.03-16.28-28.86-27.29zM1100.47 577.35c2.49 3.69 5.67 6.87 9.36 9.36a34.51 34.51 0 0 0 19.37 5.91c14.35 0 26.66-8.72 31.92-21.16 1.75-4.15 2.72-8.7 2.72-13.48 0-.87-.19-1.68-.26-2.53-.28-3.84-1.03-7.56-2.47-10.95-5.26-12.43-17.57-21.16-31.92-21.16-7.17 0-13.84 2.18-19.37 5.92a34.734 34.734 0 0 0-9.36 9.36c-3.28 4.86-5.2 10.64-5.66 16.83-.06.85-.26 1.67-.26 2.54.01 7.17 2.19 13.84 5.93 19.36zm28.72-24.26c2.7 0 4.9 2.2 4.9 4.9s-2.2 4.9-4.9 4.9-4.9-2.2-4.9-4.9 2.2-4.9 4.9-4.9z"/><path d="M478.48 639.68v553.39h37.35c-10.16-2.97-18.26-11.15-20.7-21.88-2.81-12.37 2.6-24.93 13.09-31.6V693.08c-9.15-7.08-13.52-19-10.7-30.55 3.25-13.32 15.18-22.69 28.89-22.69H696.9c9.08 0 17.66 4.14 23.3 11.25 4.18 5.27 6.38 11.74 6.42 18.33h261.89c1.59-5.09 3.56-10.11 6.39-14.92a29.751 29.751 0 0 1 25.64-14.66h215.99c13.63 0 25.52 9.27 28.84 22.48 2.41 9.58-.18 19.43-6.33 26.6v450.57c10.77 6.75 16.22 19.62 13.17 32.15-2.56 10.53-10.57 18.5-20.57 21.43h37.14V639.68h-810.3zM1239.28 589.9c4.15 1.75 8.7 2.72 13.49 2.72 9.56 0 18.22-3.88 24.49-10.15 1.57-1.56 2.99-3.28 4.23-5.13a34.441 34.441 0 0 0 5.92-19.37c0-7.17-2.18-13.84-5.92-19.37a34.642 34.642 0 0 0-4.23-5.13c-6.27-6.27-14.93-10.15-24.49-10.15-4.78 0-9.34.97-13.49 2.72a34.768 34.768 0 0 0-18.44 18.44c-1.43 3.39-2.19 7.11-2.47 10.95-.06.85-.25 1.67-.25 2.53 0 4.78.97 9.34 2.72 13.48a34.67 34.67 0 0 0 18.44 18.46zm18.38-31.91c0 2.7-2.19 4.9-4.89 4.9-2.7 0-4.91-2.2-4.91-4.9s2.2-4.9 4.91-4.9c2.69 0 4.89 2.2 4.89 4.9zM981.13 582.48c3.14 3.14 6.87 5.67 11.01 7.42 2.07.87 4.25 1.56 6.5 2.02 2.25.46 4.59.7 6.98.7 4.78 0 9.34-.97 13.48-2.72a34.75 34.75 0 0 0 18.44-18.43c1.75-4.15 2.72-8.7 2.72-13.48 0-4.79-.97-9.34-2.72-13.48a34.802 34.802 0 0 0-18.44-18.44c-4.14-1.75-8.7-2.72-13.48-2.72-2.39 0-4.72.24-6.98.7a34.594 34.594 0 0 0-17.51 9.44 34.734 34.734 0 0 0-7.43 11.01c-1.43 3.39-2.19 7.11-2.47 10.95-.06.85-.25 1.67-.25 2.53 0 4.78.97 9.34 2.72 13.48 1.75 4.15 4.29 7.89 7.43 11.02zm24.49-29.39c2.7 0 4.9 2.2 4.9 4.9s-2.2 4.9-4.9 4.9-4.9-2.2-4.9-4.9 2.2-4.9 4.9-4.9z"/><path d="M744.53 1175.84c1.66-4.06 2.05-8.31 1.86-12.51-.32-7.39-3.09-14.59-8.6-19.98-2.72-2.66-1.98-9.37 1.62-14.63 3.96-5.82 10.54-8.94 14.74-8.94.72 0 1.33.09 1.81.27 7.01 2.59 14.34 3.9 21.78 3.9 27.09 0 51.63-17.5 61.06-43.53 12.34-33.95-4.58-71.52-37.72-83.74-3.68-1.37-6.31-7.51-5.48-12.87.66-4.27 5.6-9.31 10.98-9.39 17.61-.3 34.01-7.44 46.2-20.1 12.17-12.64 18.71-29.28 18.41-46.85-.61-35.68-30.09-64.71-65.73-64.72-.16 0-.9.01-1.06.01-5.31 0-11.29-5.17-12.42-10.64-.17-.82-.38-2.77.21-5.93.88-4.47 3.39-7.48 4.89-8.11 15.94-6.76 28.31-20.34 33.96-37.27 5.3-15.87 4.49-33.38-2.27-49.32-10.9-25.6-35.19-42.11-61.88-42.11-8.04 0-15.87 1.52-23.29 4.54-1.18.48-2.64.74-4.19.74-1.04 0-2.11-.11-3.18-.34-2.79-1.51-5.22-3.56-6.96-5.87-3.51-4.67-4.02-9.44-3.4-12.12.53-2.29.76-4.61.75-6.92-.04-6.59-2.24-13.06-6.42-18.33a29.733 29.733 0 0 0-23.3-11.25H526.42c-13.71 0-25.64 9.37-28.89 22.69-2.82 11.55 1.55 23.47 10.7 30.55 1.4 1.08 2.89 2.06 4.5 2.9 66.79 34.65 138.77 107.47 140.49 207.89 1.77 103.12-51.28 190.56-141.91 233.91-1.09.52-2.08 1.18-3.08 1.81-10.49 6.67-15.9 19.23-13.09 31.6 2.44 10.74 10.54 18.92 20.7 21.88 2.66.78 5.43 1.28 8.31 1.28H717c2.94 0 5.79-.47 8.51-1.28 8.47-2.53 15.56-8.75 19.02-17.22zm40.98-385.15c-11.33 4.78-19.15 15.92-22.07 28.44-.13.55-.39 1.06-.5 1.61-1.08 5.8-1.26 11.76-.09 17.43 3.94 19 21.8 34.34 41.42 34.34.2 0 .4 0 .6-.01h.58c15.36 0 28.42 9.76 33.57 23.44 1.42 3.77 2.35 7.79 2.42 12.05.35 19.95-15.48 36.36-35.33 36.69-16.89.26-31.73 11.6-37.61 26.47-1.03 2.62-1.88 5.3-2.31 8.1-2.9 18.7 6.74 38.73 24.59 45.33 8 2.95 14.09 8.77 17.91 15.89 4.69 8.75 5.88 19.51 2.14 29.81-5.34 14.73-18.87 23.93-33.1 23.93-3.82 0-7.69-.66-11.46-2.06-3.89-1.44-7.99-2.11-12.13-2.11-14.83 0-30.28 8.66-39.29 21.91-1.34 1.96-2.49 4.01-3.52 6.1-1.15 2.33-2.12 4.72-2.86 7.15-4.14 13.46-1.98 27.95 7.46 38.13.38.41.66.88 1.06 1.28H524.14c.84-.4 1.62-.88 2.45-1.28a282.903 282.903 0 0 0 58.31-38.13c61.34-51.92 99.63-129.77 98.05-221.84-1.88-109.74-77.28-192.66-156.53-233.78h170.49c-.22.94-.17 1.94-.31 2.9-1.75 11.37 1.31 23.76 8.89 33.83 5.29 7.05 12.46 12.5 20.27 15.98 4.39 1.37 9.02 2.11 13.66 2.11 5.22 0 10.45-.93 15.38-2.92 3.93-1.6 8.02-2.35 12.1-2.35 14.19 0 28.19 9.16 34.51 24 1.04 2.45 1.82 4.95 2.37 7.44 3.72 16.92-3.55 33.88-18.27 40.12zM1272.21 1171.64c3.05-12.53-2.4-25.41-13.17-32.15-.69-.43-1.33-.92-2.06-1.3-33.29-17.23-112.57-68.49-129.57-172.14-18.71-113.94 29.65-220.02 123.19-270.27 3.3-1.78 6.1-4.14 8.44-6.86 6.15-7.17 8.74-17.01 6.33-26.6-3.33-13.22-15.21-22.48-28.84-22.48h-215.99c-10.54 0-20.29 5.58-25.64 14.66-2.83 4.81-4.8 9.84-6.39 14.92-8.27 26.51-.19 55.35 22.03 71.76 2.38 1.76 3.8 8.99.59 16.28-3.13 7.09-8.89 10.1-10.65 10.1-4.1-.92-8.41-1.4-12.69-1.4-29.6 0-55.12 22.45-60.68 53.38-6.3 34.85 15.15 69.18 47.82 76.5 1.82.41 5.9 5.44 5.93 12.24.02 5.09-3.86 10.13-7.05 10.7-34.08 6.11-57.02 40.01-51.16 75.57 5.22 31.9 31.53 55.07 62.56 55.07 3.59 0 7.22-.32 10.77-.96h.07c3.36 0 8.36 3.15 10.15 8.27.58 1.68.88 4.07.82 6.68-.18 5.2-2.28 8.44-3.03 9.01-27.75 18.42-35.18 57.54-16.91 89.05.33.57.78 1.09 1.13 1.66 6.83 11.02 16.94 20.68 28.87 27.29 1.94 1.08 4.02 1.84 6.14 2.45 2.69.78 5.46 1.28 8.28 1.28h211.83c2.89 0 5.66-.5 8.32-1.28 9.98-2.93 18-10.91 20.56-21.43zm-259.41-24.89c-7.74-13.36-7.65-29.19-.95-40.29 2.18-3.61 5.04-6.73 8.59-9.08 10.09-6.69 15.85-19.61 16.3-33.06.14-5.86-.58-11.78-2.48-17.23-.22-.64-.56-1.22-.81-1.84-6.26-15.42-21.32-26.38-36.94-26.38-1.93 0-3.87.17-5.8.51-1.85.33-3.69.49-5.51.49-16.05 0-30.33-12.52-33.21-30.16a38.192 38.192 0 0 1 2.59-21.34c4.43-10.29 13.28-18.12 24.45-20.12 18.18-3.24 31.65-21.17 31.56-40.07-.01-4.48-.73-8.91-1.98-13.15-4.02-13.64-13.96-25.06-27.19-28.01-17.32-3.88-28.57-22.76-25.05-42.21.22-1.21.6-2.33.92-3.48 4.17-15.16 16.59-25.42 30.49-25.42 2.08 0 4.19.23 6.3.7 2.11.47 4.25.7 6.39.7 15.36 0 30.75-11.68 37.87-27.85 4.07-9.24 5.32-19.53 3.64-28.9-1.66-9.3-6.21-17.7-13.77-23.29-10.47-7.73-14.82-20.88-12.67-33.8.79-4.75 2.4-9.46 4.99-13.88h215.99c-82.79 44.48-137.98 130.95-142.45 234.25-.94 21.7.22 44.09 3.99 67.04 10.73 65.45 44.75 117.2 87.36 154.33 17.42 15.18 36.26 27.92 55.56 38.13.78.41 1.55.87 2.33 1.28h-211.83c-.69-.38-1.33-.87-2.01-1.28-6.71-4.14-12.74-9.82-16.67-16.59z"/></g></svg>