<svg id="Layer_1" xmlns="http://www.w3.org/2000/svg" viewBox="0 0 1770.73 1770.73"><style>.st0{fill:#88b3ff}.st1{fill:#fff}.st2{fill:#eaeaea}.st3{fill:#6fdeb5}.st4{fill:none}</style><circle class="st0" cx="884.24" cy="888.81" r="874.2"/><path class="st1" d="M673.74 716.39h629.23l-86.36 395.25H775.92l-77.5-325.5"/><path d="M1260.46 1133.86H784.18c-10.14 0-19-6.87-21.52-16.69l-83.77-325.5 43.05-11.08 79.47 308.81h441.46l82.85-350.8H673.74a22.23 22.23 0 0 1-20.03-12.59l-55.7-115.7H505.3v-44.45h106.68c8.54 0 16.32 4.89 20.03 12.59l55.7 115.7h666.1c6.79 0 13.21 3.11 17.43 8.43a22.183 22.183 0 0 1 4.2 18.9l-93.34 395.25c-2.38 10.05-11.33 17.13-21.64 17.13z"/><circle class="st1" cx="877.18" cy="1258.09" r="69.75"/><path d="M877.18 1350.07c-50.72 0-91.98-41.26-91.98-91.98 0-50.71 41.26-91.97 91.98-91.97s91.98 41.26 91.98 91.97c-.01 50.72-41.27 91.98-91.98 91.98zm0-139.5c-26.2 0-47.53 21.32-47.53 47.52s21.32 47.53 47.53 47.53c26.2 0 47.53-21.32 47.53-47.53s-21.33-47.52-47.53-47.52z"/><circle class="st1" cx="1156.18" cy="1258.09" r="69.75"/><path d="M1156.18 1350.07c-50.71 0-91.97-41.26-91.97-91.98 0-50.71 41.26-91.97 91.97-91.97 50.72 0 91.98 41.26 91.98 91.97-.01 50.72-41.27 91.98-91.98 91.98zm0-139.5c-26.2 0-47.52 21.32-47.52 47.52s21.31 47.53 47.52 47.53c26.2 0 47.53-21.32 47.53-47.53s-21.33-47.52-47.53-47.52z"/><path transform="rotate(-11.304 854.98 914.154)" d="M839.94 789.42h29.63v249.33h-29.63z"/><path transform="rotate(-77.912 1197.037 905.967)" d="M1080.35 891.12h233.37v29.64h-233.37z"/><path d="M1059.97 791.85h29.63v228.19h-29.63z"/><g><path d="M962.18 791.85h29.63v228.19h-29.63z"/></g><g><path class="st1" d="M575.67 620.71H416.68c-1.1 0-2-.9-2-2v-61.2c0-1.1.9-2 2-2h158.99c1.1 0 2 .9 2 2v61.2a2 2 0 0 1-2 2z"/><path d="M548.04 642.93H444.32c-28.59 0-51.86-23.26-51.86-51.86v-5.93c0-28.6 23.27-51.86 51.86-51.86h103.72c28.59 0 51.86 23.26 51.86 51.86v5.93c-.01 28.6-23.27 51.86-51.86 51.86zm-103.72-65.19c-4.09 0-7.41 3.32-7.41 7.41v5.93c0 4.08 3.32 7.41 7.41 7.41h103.72c4.09 0 7.41-3.32 7.41-7.41v-5.93c0-4.08-3.32-7.41-7.41-7.41H444.32z"/></g><g><path class="st1" d="M864.31 676.9c-13.59-23.8-21.36-51.35-21.36-80.72 0-90.02 72.97-162.99 162.99-162.99s162.99 72.97 162.99 162.99c0 28.99-7.57 56.22-20.84 79.8"/><path d="M845.01 687.93c-15.89-27.81-24.29-59.54-24.29-91.75 0-102.13 83.09-185.22 185.21-185.22s185.21 83.09 185.21 185.22c0 31.78-8.19 63.15-23.69 90.7l-38.74-21.79c11.76-20.92 17.98-44.74 17.98-68.91 0-77.62-63.15-140.76-140.76-140.76s-140.76 63.15-140.76 140.76c0 24.49 6.37 48.59 18.43 69.7l-38.59 22.05z"/></g><g><path d="M1022.74 627.77v49.98h-33.22v-49.98h-68.74V597.6h68.74v-74.45h33.22v74.45h68.34v30.17h-68.34z"/></g><g><circle class="st0" cx="7027.91" cy="5030.41" r="885.37"/><path class="st1" d="M7236.3 4792.25h-18.94v113.67h18.94c31.39 0 56.83-25.44 56.83-56.83s-25.46-56.84-56.83-56.84zM6762.69 4849.08c0 31.39 25.44 56.83 56.83 56.83h18.94v-113.67h-18.94c-31.38.01-56.83 25.45-56.83 56.84zM7236.3 4729.62l22.35-85.73c7.33-32.54-22.13-63.34-65.77-68.81-4.43-.55-8.92-.82-13.41-.82-11.33-25.28-43.06-42.34-78.81-42.37l-195.04-10.08-9.32 10.08h-19.94l-37.89-42.37-18.94 14.12c-52.3 39-52.32 102.21-.04 141.21.02.01.02.03.04.03H7191l45.3 84.74zM7223.58 5226.13l-122.73-15.79-115.28 62.04-115.28-61.4-122.73 15.79c-67 8.35-117.14 61.5-117.48 124.54v173.64h710.97v-173.64c.01-63.27-50.22-116.79-117.47-125.18z"/><path class="st1" d="M7156.92 5188.26l-15.34-1.73v-72.17l-85.35 30.02h-45.02l-96.96-30.02v72.17l-15.35 1.73 129.01 61.19z"/><path class="st2" d="M6914.25 5360.58l113.66-75.78-113.66-75.78h-37.89zM7027.91 5284.8l113.67 75.78 37.89-151.56h-37.89z"/><path class="st1" d="M7237.99 4786.02l-1.5 99.35c-.76 49.17-11.79 97.34-32.08 140.03-26.63 55.99-76.05 90.22-129.11 89.4-53.06-.78-101.43-36.48-126.36-93.26-18.99-43.28-28.57-91.76-27.84-140.93l3.08-203.92 258.05 3.89 55.76 105.44z"/><path d="M7236.3 4924.86h-18.94v-37.89h18.94c20.9 0 37.89-16.99 37.89-37.89s-16.99-37.89-37.89-37.89h-18.94v-37.89h18.94c41.79 0 75.78 33.99 75.78 75.78s-33.99 75.78-75.78 75.78zM6838.47 4924.86h-18.94c-41.79 0-75.78-33.99-75.78-75.78s33.99-75.78 75.78-75.78h18.94v37.89h-18.94c-20.9 0-37.89 16.99-37.89 37.89s16.99 37.89 37.89 37.89h18.94v37.89zM7035.61 4939.49h-39.97c-4.18 0-8.11-1.96-10.63-5.3a13.273 13.273 0 0 1-2.17-11.68l26.65-93.26 25.62 7.33-21.81 76.27h22.3v26.65h.01z"/><path d="M7027.95 5171.13h-.11c-76.91 0-147.92-41.75-185.29-109.02-27.45-49.39-41.96-105.37-41.98-161.86v-221.67c0-10.46 8.49-18.94 18.94-18.94h341c6.33 0 12.24 3.16 15.76 8.43l75.78 113.67c2.06 3.11 3.18 6.76 3.18 10.51v107.98c-.02 56.49-14.55 112.47-41.98 161.88-37.36 67.25-108.37 109.02-185.3 109.02zm-.06-37.88h.04c63.2 0 121.51-34.31 152.2-89.53 24.32-43.8 37.19-93.41 37.21-143.5v-102.24l-66.97-100.44h-311.9v202.7c.02 50.09 12.88 99.7 37.21 143.48 30.69 55.24 89 89.53 152.18 89.53h.03z"/><path d="M7012.19 5038.53h-22.16v-37.89h22.16c29.5-.02 57.23-11.5 78.11-32.36l26.79 26.81c-28.04 28-65.29 43.42-104.9 43.44z"/><circle cx="6925.63" cy="4830.14" r="29.12"/><circle cx="7100.34" cy="4830.14" r="29.12"/><path d="M7254.98 4814.32l-37.38-6.23 22.35-133.94c2.71-16.14-1.02-32.36-10.51-45.66-9.49-13.3-23.59-22.13-39.71-24.84-3.37-.57-7.2-.98-10.25-.83h-.04c-8.15 0-15.4-5.21-17.96-12.94-8.77-26.24-33.23-43.88-60.87-43.91H6940.5c-2.41 0-4.73-.94-6.47-2.61l-22.62-26.41c-1.78-1.72-4.72-1.24-5.87.95l-10.07 23.89a7.816 7.816 0 0 1-6.91 4.19h-12.2c-6.33 0-12.24-3.16-15.76-8.43l-25.08-37.6-2.61 2.6c-21.71 21.71-33.68 50.6-33.68 81.31 0 30.73 11.95 59.6 33.66 81.31l-26.77 26.82c-59.62-59.64-59.62-156.63 0-216.23l18.94-18.94c4.02-4 9.62-6.04 15.27-5.46 5.65.55 10.74 3.62 13.89 8.34l32.28 48.4 6.1-33.13c.78-4.22 6.07-5.71 8.94-2.52l31.96 35.65h167.17c39.57.04 75.02 22.75 91.88 57.67 1.17.15 2.31.32 3.49.51 26.12 4.38 48.95 18.66 64.32 40.22s21.41 47.8 17.01 73.9l-22.39 133.92zM6649.03 5587.91h-37.89v-208.39c0-85.06 63.58-157.71 147.92-169l136.25-18.09v-78.13h37.89v94.72c0 9.49-7.03 17.52-16.44 18.77l-152.69 20.27c-65.57 8.77-115.03 65.26-115.03 131.44v208.41zM7444.69 5587.91h-37.89v-208.39c0-66.17-49.44-122.68-115.05-131.44l-152.67-20.27c-9.42-1.25-16.44-9.28-16.44-18.77v-94.72h37.89v78.13l136.23 18.09c84.34 11.27 147.94 83.94 147.94 169v208.37h-.01z"/><path d="M6762.77 5436.35h37.89v151.55h-37.89zM7255.32 5436.35h37.89v151.55h-37.89zM6914.25 5379.52c-2.31 0-4.62-.42-6.84-1.27a18.963 18.963 0 0 1-11.54-13.07l-37.89-151.55 36.75-9.17 31.37 125.47 91.29-60.87 21.01 31.52-113.67 75.78c-3.13 2.1-6.81 3.16-10.48 3.16z"/><path d="M7027.91 5303.74c-3.24 0-6.48-.83-9.4-2.5l-132.61-75.78 18.79-32.89 123.21 70.42 123.21-70.42 18.79 32.89-132.61 75.78c-2.9 1.67-6.14 2.5-9.38 2.5z"/><path d="M7141.58 5379.52c-3.68 0-7.35-1.08-10.51-3.18l-113.67-75.78 21.01-31.52 91.29 60.87 31.37-125.47 36.73 9.17-37.89 151.55a18.919 18.919 0 0 1-11.54 13.07c-2.17.87-4.48 1.29-6.79 1.29zM6610.29 5579.55h835.25v30.01h-835.25z"/></g><circle class="st3" cx="873.08" cy="-3263.63" r="885.37"/><g><path class="st1" d="M327.34-3601.27h1080.44l-540.22 315.13z"/><path class="st1" d="M1412.82-3038.54H333.34c-16.84 0-30.5-13.65-30.5-30.5v-501.73c0-16.84 13.65-30.5 30.5-30.5l534.22 405.17 545.26-405.17c16.84 0 30.5 13.65 30.5 30.5v501.73c0 16.84-13.66 30.5-30.5 30.5z"/><path d="M1412.82-2903.48H333.34c-29.23 0-53.01-23.78-53.01-53.01v-614.28c0-29.23 23.78-53.01 53.01-53.01h1079.48c29.23 0 53.01 23.78 53.01 53.01v614.28c-.01 29.23-23.78 53.01-53.01 53.01zM333.34-3578.76c-4.4 0-7.99 3.58-7.99 7.99v614.28c0 4.41 3.58 7.99 7.99 7.99h1079.48c4.4 0 7.99-3.58 7.99-7.99v-614.28c0-4.41-3.58-7.99-7.99-7.99H333.34z"/><path d="M869.24-3172.49l-556.75-387.8 25.73-36.95 531.2 370.01 538.64-370.09 25.5 37.11z"/><path transform="rotate(-38.399 530.928 -3108.524)" d="M256.86-3131.01h547.9v45.02h-547.9z"/><path transform="rotate(-51.611 1221.145 -3108.303)" d="M1198.59-3382.45h45.02v547.9h-45.02z"/></g><g><circle class="st3" cx="884.36" cy="-1178.06" r="874.08"/><path class="st1" d="M516.84-1401.13c-55.14 2.27-94.91 35.81-98.28 82.22-1.42 19.6-1.36 39.39.01 59 2.72 39.09 31.87 72.27 76.53 78.66 40.18 5.75 81.83 4.15 124 5.84v-225.97c-35.94 0-69.17-1.11-102.26.25zM1185.05-1309.82v80.53c26.76-7.24 36.61-20.27 38.07-36.52 1.68-18.59-9.24-32.99-38.07-44.01zM1114.4-1511.57c-135.4 72.62-275.15 120.83-436.75 108.52 0 77.17-.05 155.35-.05 224.7 86.78 6.25 157.34 7.72 234 18.65 74.05 10.57 139.94 39.73 202.72 77.41 4.81 2.89 11.48-.01 11.48-4.99v-418.99c0-4.94-6.46-7.95-11.4-5.3z"/><path d="M1202.06-1363.7c-15.52-6.52-19.07-14.47-18.89-29.55.68-55.84 1.06-111.71-.4-167.52 0-16.56-6.05-29.38-14.41-33.26-9.85-4.56-27.05-.31-37.94 5.74-31.27 17.38-60.49 38.39-91.36 56.54-103.11 60.61-212 99.63-334.35 93.43-59.86-3.04-120.01-1.05-180.02-.34-83.77.98-149.03 56.63-160.89 138.95-3.89 26.99-2.28 54.91-1.78 82.37 1.61 88.01 58.14 155.95 146.45 158.61 12.82.08 2.46.08 14.58-.04 17.22-.7 26.62 4.09 33.5 21.36 33.3 83.56 68.24 166.47 102.56 249.62 7.58 18.36 99.42 34.57 122.17 25.23 22.35-9.18 19.79-27.73 11.89-46.49-16.15-38.39-32.08-76.87-47.97-115.36-17.72-42.92-35.95-88.37-54.79-134.23 9.86.49 11.6.33 14.82.37 26.67.3 53.4-.29 79.99 1.4 130.22 8.28 248.94 44.75 341.87 142.54 10.73 11.29 24.24 16.49 37.75 14.14 15.17-2.64 17.13-24.06 17.57-36.86 1.89-54.95 1.34-110.01.49-165.01-.25-16.18 3.84-24.34 20.1-31.31 49.86-21.39 77.01-61.52 76.86-115.51-.13-54.09-27.76-93.79-77.8-114.82zM619.1-1113.35c-42.17-2-83.83-.1-124-6.91-44.66-7.57-73.81-46.85-76.53-93.14-1.37-23.22-1.43-46.65-.01-69.86 3.37-54.95 43.14-94.67 98.28-97.36 33.09-1.61 66.33-.3 102.26-.3v267.57zM1125.8-1009c0 5.91-6.67 9.33-11.48 5.91-62.78-44.62-128.68-79.15-202.72-91.66-76.67-12.95-147.23-14.69-234-22.09 0-82.11.05-174.69.05-266.06 161.6 14.58 301.34-42.51 436.75-128.5 4.94-3.14 11.4.42 11.4 6.27V-1009zm97.32-234.86c-1.47 24.36-11.31 43.89-38.07 54.74v-120.7c28.83 16.52 39.75 38.1 38.07 65.96zM1446.77-1134.94c-33.78-13.63-67.57-27.57-101.48-41.12-17.9-7.15-31.83-2-38.95 15.04-7.63 18.29 2.62 30.28 19.12 37.02 29.2 11.93 58.63 23.31 88.06 34.67 7.67 2.96 4.14 1.84 17.45 6.03 18.24 4.93 31.99-11.98 32.4-20.6.5-10.39 5.07-22.3-16.6-31.04zM1346.17-1320.95c44.29-18.55 69.75-27.56 109.91-46.88 5.9-2.84 11.87-16.23 5.62-30.17-6.84-15.25-21.62-17.45-29.6-14.9-38.65 12.36-76.67 27.24-113.46 44.36-7.57 3.52-15.38 18.01-11.83 30.88 2.27 8.23 13.72 24.6 39.36 16.71zM1448.72-1275.35c-36.64-.82-67.05-.67-103.69-.16-16.48.23-27.08 9.63-27.63 26.21-.59 17.94 10.49 27.82 27.79 28.87 17.43 1.06 91.04-1.1 109.65-1.1 21.99 0 26.38-15.98 26.02-26.99-.58-18.2-15.71-26.46-32.14-26.83z"/></g><circle class="st0" cx="3951.64" cy="5030.41" r="885.37"/><g><path class="st4" d="M3833.22 5206.46c-18-6.28-40.25 2.71-51.89 18.84-9.57 13.21-11.28 30.13-3.55 42.9 1.04-2.11 2.2-4.18 3.55-6.15 9.1-13.37 24.69-22.11 39.65-22.11 4.18 0 8.31.68 12.24 2.13a33.28 33.28 0 0 0 11.57 2.08c14.36 0 28.01-9.28 33.4-24.15 3.78-10.39 2.58-21.25-2.16-30.08-8.22 14.89-26.34 22.28-42.81 16.54zM3873.44 5066.11c-20.05.29-37.36 15.12-40.28 32.9-1.17 7.09-.25 14.35 2.33 20.96 5.93-15 20.9-26.45 37.95-26.71 20.03-.34 36-16.9 35.65-37.03-.07-4.29-1.01-8.35-2.44-12.16-5.16 12.69-17.98 21.8-33.21 22.04zM3852.64 4919.55c-11.93 4.75-20.17 16.05-22.77 28.6-1.1 5.52-1.27 11.19-.09 16.59.14.63.42 1.21.59 1.83 2.95-12.63 10.84-23.88 22.27-28.7 14.85-6.29 22.19-23.41 18.41-40.48-2.24 9.84-8.63 18.25-18.41 22.16zM4179.9 4674.06c5.58-3.77 12.3-5.97 19.54-5.97 14.48 0 26.9 8.8 32.21 21.35 1.45 3.42 2.2 7.17 2.49 11.05.06-.81.26-1.58.26-2.41 0-18.21-15.65-32.97-34.95-32.97-19.3 0-34.95 14.76-34.95 32.97 0 .82.19 1.6.26 2.41.46-6.25 2.4-12.08 5.71-16.98 2.5-3.72 5.71-6.93 9.43-9.45z"/><path class="st4" d="M4376.08 5399.64h-848.87c-30.25 0-54.77-23.12-54.77-51.66v-677.49 719.83c0 30.25 24.52 54.77 54.77 54.77h848.87c30.26 0 54.77-24.52 54.77-54.77v-42.34c-.01 28.53-24.52 51.66-54.77 51.66zM4050.03 4678.33a35.06 35.06 0 0 1 11.11-7.49c2.09-.88 4.29-1.57 6.56-2.04 2.28-.47 4.63-.71 7.04-.71 4.82 0 9.42.98 13.6 2.75a35.132 35.132 0 0 1 18.61 18.6c1.45 3.42 2.21 7.17 2.49 11.05.06-.81.26-1.58.26-2.41 0-18.21-15.66-32.97-34.96-32.97s-34.96 14.76-34.96 32.97c0 .83.19 1.6.26 2.41.29-3.88 1.04-7.63 2.49-11.05 1.77-4.18 4.34-7.95 7.5-11.11z"/><path class="st4" d="M3792.45 4822.48c-.63 2.7-.12 7.52 3.43 12.23 1.75 2.33 4.2 4.39 7.02 5.92 1.08.23 2.17.34 3.21.34 1.56 0 3.03-.26 4.22-.74a62.132 62.132 0 0 1 23.5-4.58c26.94 0 51.44 16.67 62.44 42.5 6.83 16.08 7.64 33.75 2.29 49.77-5.71 17.09-18.18 30.79-34.27 37.61-1.51.64-4.05 3.67-4.93 8.18-.6 3.19-.38 5.15-.21 5.98 1.14 5.52 7.18 10.73 12.54 10.73.16 0 .91-.01 1.07-.01 35.96 0 65.71 29.3 66.32 65.3.31 17.73-6.29 34.52-18.57 47.28-12.31 12.78-28.85 19.98-46.63 20.28-5.43.08-10.41 5.16-11.08 9.47-.84 5.42 1.81 11.61 5.53 12.99 33.45 12.32 50.52 50.24 38.07 84.5-9.52 26.28-34.29 43.93-61.62 43.93-7.51 0-14.9-1.33-21.98-3.94-.49-.18-1.1-.27-1.83-.27-4.23 0-10.87 3.15-14.87 9.02-3.63 5.32-4.38 12.08-1.63 14.77 5.56 5.44 8.35 12.7 8.67 20.16h244.01c-.35-.57-.81-1.1-1.14-1.67-18.43-31.8-10.93-71.28 17.07-89.86.75-.57 2.88-3.85 3.05-9.09.06-2.63-.24-5.05-.83-6.74-1.81-5.17-6.85-8.35-10.24-8.35h-.07c-3.58.64-7.24.97-10.87.97-31.31 0-57.86-23.38-63.13-55.57-5.91-35.88 17.24-70.09 51.63-76.26 3.22-.58 7.13-5.65 7.11-10.79-.02-6.86-4.14-11.94-5.98-12.35-32.97-7.39-54.62-42.03-48.26-77.19 5.61-31.21 31.36-53.87 61.23-53.87 4.32 0 8.67.48 12.8 1.41 1.78 0 7.6-3.03 10.75-10.19 3.24-7.36 1.81-14.65-.59-16.43-22.42-16.56-30.57-45.66-22.23-72.41H3793.2c.02 2.31-.21 4.66-.75 6.97zM3763.22 4815.66h-.69c.08.98.23 1.95.38 2.93.14-.97.09-1.98.31-2.93zM4321.95 4842.1c-94.39 50.7-143.19 157.76-124.31 272.73 17.15 104.59 97.15 156.32 130.75 173.7.74.38 1.38.87 2.08 1.31v-454.67c-2.36 2.75-5.18 5.14-8.52 6.93z"/><path class="st4" d="M4164 5052.04c4.5-104.24 60.2-191.5 143.74-236.38h-20.11c-78.81 48.79-127.81 135.54-123.63 236.38zM3591.36 5313.9h191.06c-9.52-10.28-11.7-24.9-7.53-38.48h-124.7a285.673 285.673 0 0 1-58.83 38.48zM3719.13 5052.08c-1.74-101.34-74.37-174.81-141.77-209.78a30.05 30.05 0 0 1-4.54-2.92v450.57c1.01-.64 2.01-1.3 3.11-1.83 91.45-43.75 144.99-131.98 143.2-236.04zM3542.81 4775.83h817.67v9.65h-817.67zM4310.53 4670.84c4.18-1.77 8.78-2.75 13.61-2.75 9.65 0 18.39 3.91 24.71 10.24 1.58 1.58 3.01 3.31 4.27 5.17 3.32 4.91 5.25 10.74 5.71 16.99.06-.81.26-1.58.26-2.41 0-18.21-15.65-32.97-34.95-32.97-19.31 0-34.97 14.76-34.97 32.97 0 .83.19 1.6.26 2.41.29-3.88 1.04-7.63 2.49-11.05a35.132 35.132 0 0 1 18.61-18.6zM4376.08 4615.73c.05 0 .1.01.15.01-.06.01-.1-.01-.15-.01h-848.87c-.05 0-.11.01-.16.01.05 0 .11-.01.16-.01h848.87zM4050.33 4992.19c-12-2.54-20.97-11.86-24.36-23.41-.32 1.17-.71 2.29-.93 3.51-3.55 19.63 7.8 38.68 25.28 42.6 13.35 2.98 23.38 14.5 27.43 28.27 1.26-3.8 2.01-7.76 2-11.79-.05-17.99-11.92-35.5-29.42-39.18zM4256.18 5275.42h-155.34c-7.6-3.98-14.49-9.9-18.85-16.99-.38-.62-.61-1.28-.95-1.91-6.77 11.2-6.86 27.18.95 40.66 3.97 6.83 10.06 12.56 16.83 16.72h213.43c-19.48-10.31-38.49-23.16-56.07-38.48zM4103.64 5163.57c-6.49-17.47-25.62-29.47-43.94-26.37-15.49 2.62-30.26-6.05-36.47-20.04a38.57 38.57 0 0 0-2.61 21.53c2.91 17.81 17.32 30.44 33.51 30.44 1.84 0 3.69-.16 5.56-.5 1.95-.34 3.9-.51 5.85-.51 15.76 0 30.96 11.06 37.27 26.62 1.86-4.64 3.14-9.61 3.32-14.77.16-5.57-.57-11.2-2.49-16.4zM4097.54 4849.67c-7.04-4.91-11.32-12.11-12.78-20.01-2.17 13.04 2.22 26.3 12.78 34.11 7.63 5.65 12.22 14.12 13.9 23.51 2.45-14.44-1.97-29.29-13.9-37.61z"/><path class="st1" d="M4376.22 4615.75c-.05 0-.09-.01-.15-.01H3527.2c-.05 0-.11.01-.16.01-30.17.09-54.6 24.55-54.61 54.74v677.49c0 28.53 24.52 51.66 54.77 51.66h848.87c30.25 0 54.77-23.12 54.77-51.66V4670.5c0-30.2-24.43-54.67-54.62-54.75zm-87.05 87.3c0-.88.19-1.7.26-2.56-.06-.81-.26-1.58-.26-2.41 0-18.21 15.66-32.97 34.97-32.97 19.3 0 34.95 14.76 34.95 32.97 0 .83-.19 1.6-.26 2.41.06.86.26 1.68.26 2.56 0 7.24-2.2 13.97-5.97 19.54a34.714 34.714 0 0 1-4.27 5.17 34.807 34.807 0 0 1-24.71 10.24c-4.83 0-9.42-.98-13.61-2.75a35.132 35.132 0 0 1-18.61-18.6 34.775 34.775 0 0 1-2.75-13.6zm-124.68-4.97c0-18.21 15.65-32.97 34.95-32.97 19.31 0 34.95 14.76 34.95 32.97 0 .83-.19 1.6-.26 2.41.06.86.26 1.68.26 2.56 0 4.83-.98 9.42-2.75 13.61-5.31 12.54-17.73 21.35-32.21 21.35-7.24 0-13.96-2.2-19.54-5.97a35.039 35.039 0 0 1-9.44-9.44 34.775 34.775 0 0 1-5.97-19.54c0-.88.19-1.7.26-2.56-.06-.82-.25-1.59-.25-2.42zm-124.7 4.97c0-.88.19-1.7.26-2.56-.06-.81-.26-1.58-.26-2.41 0-18.21 15.66-32.97 34.96-32.97s34.96 14.76 34.96 32.97c0 .83-.19 1.6-.26 2.41.06.86.26 1.68.26 2.56 0 4.83-.98 9.42-2.75 13.61a35.098 35.098 0 0 1-18.61 18.6 34.812 34.812 0 0 1-13.6 2.75c-2.41 0-4.77-.25-7.04-.71-2.27-.47-4.47-1.15-6.56-2.04a35.06 35.06 0 0 1-18.6-18.6 34.689 34.689 0 0 1-2.76-13.61zm320.69 82.44v558.42H4323c-2.69.79-5.49 1.29-8.4 1.29h-213.76c-2.85 0-5.64-.5-8.35-1.29h-300.41c-2.74.82-5.62 1.29-8.59 1.29h-194.61c-2.91 0-5.7-.51-8.38-1.29h-37.69V4775.84h817.67v9.65z"/><path class="st1" d="M3829.87 4948.15c2.6-12.55 10.84-23.85 22.77-28.6 9.79-3.91 16.18-12.31 18.41-22.17-.56-2.52-1.34-5.03-2.39-7.51-6.38-14.97-20.5-24.22-34.82-24.22-4.11 0-8.24.76-12.21 2.37-4.97 2.01-10.25 2.95-15.52 2.95-4.69 0-9.36-.74-13.79-2.13-7.88-3.52-15.11-9.02-20.45-16.13-7.64-10.16-10.73-22.66-8.97-34.14-.15-.98-.3-1.95-.38-2.93h-171.34c79.97 41.49 156.06 125.16 157.96 235.9 1.6 92.91-37.05 171.47-98.94 223.85h124.7c.75-2.46 1.73-4.87 2.89-7.22-7.72-12.78-6.02-29.69 3.55-42.9 11.64-16.12 33.89-25.11 51.89-18.84 16.47 5.74 34.59-1.65 42.81-16.53-3.85-7.18-9.99-13.06-18.07-16.03-18.01-6.66-27.74-26.87-24.81-45.74.44-2.82 1.29-5.54 2.33-8.18-2.58-6.61-3.5-13.87-2.33-20.96 2.92-17.78 20.23-32.61 40.28-32.9 15.23-.24 28.06-9.35 33.21-22.03-5.19-13.8-18.37-23.66-33.87-23.66h-.59c-.2.01-.41.01-.61.01-19.8 0-37.82-15.48-41.79-34.65-1.18-5.72-1-11.73.09-17.59.11-.56.37-1.07.5-1.63-.17-.62-.45-1.2-.59-1.83-1.19-5.37-1.02-11.04.08-16.56zM4100.84 5275.42h155.34c-42.99-37.47-77.32-89.69-88.15-155.73-3.8-23.16-4.97-45.75-4.02-67.65-4.18-100.84 44.81-187.59 123.63-236.38h-197.85c-2.62 4.45-4.24 9.21-5.04 14 1.46 7.9 5.74 15.1 12.78 20.01 11.93 8.32 16.35 23.17 13.9 37.61 1.69 9.46.43 19.84-3.68 29.17-7.19 16.32-22.71 28.1-38.21 28.1-2.16 0-4.31-.23-6.44-.7a28.97 28.97 0 0 0-6.36-.71c-14.03 0-26.56 10.35-30.77 25.65 3.38 11.56 12.36 20.88 24.36 23.41 17.49 3.68 29.37 21.19 29.43 39.17.02 4.03-.74 7.99-2 11.79 1.26 4.28 1.98 8.75 2 13.27.08 19.07-13.51 37.17-31.85 40.44-11.28 2.03-20.21 9.93-24.67 20.31 6.21 13.98 20.98 22.66 36.47 20.04 18.32-3.1 37.45 8.9 43.94 26.37 1.91 5.19 2.65 10.82 2.5 16.4-.18 5.17-1.46 10.13-3.32 14.77.26.63.59 1.22.82 1.86 1.91 5.5 2.65 11.47 2.5 17.39-.45 13.57-6.27 26.61-16.45 33.36-3.58 2.37-6.46 5.52-8.67 9.16.34.63.57 1.29.95 1.91 4.38 7.08 11.26 13 18.86 16.98zM4324.14 4668.09zM4359.09 4703.05c0-.88-.19-1.7-.26-2.56-.46-6.25-2.4-12.08-5.71-16.99a34.807 34.807 0 0 1 5.97 19.55zM4319.19 4703.05c0 2.73 2.22 4.94 4.95 4.94a4.95 4.95 0 0 0 4.94-4.94c0-2.73-2.21-4.95-4.94-4.95-2.73 0-4.95 2.22-4.95 4.95zM4291.92 4716.66a34.861 34.861 0 0 0 0 0zM4324.14 4738zM4199.44 4707.99a4.944 4.944 0 0 0 0-9.89 4.944 4.944 0 1 0 0 9.89zM4199.44 4668.09zM4199.44 4738zM4234.39 4703.05c0 4.83-.98 9.42-2.75 13.61 1.78-4.19 2.75-8.78 2.75-13.61zM4074.75 4707.99a4.944 4.944 0 1 0-4.95-4.94c0 2.73 2.22 4.94 4.95 4.94zM4067.7 4668.8c2.28-.47 4.63-.71 7.04-.71-2.4 0-4.76.25-7.04.71zM4109.7 4703.05c0-.88-.19-1.7-.26-2.56-.29-3.88-1.04-7.63-2.49-11.05 1.77 4.18 2.75 8.78 2.75 13.61zM4061.14 4670.84zM4074.75 4738c-2.41 0-4.77-.25-7.04-.71 2.27.47 4.63.71 7.04.71zM4042.54 4716.66a34.861 34.861 0 0 0 0 0zM4061.14 4735.26z"/><path d="M4314.6 5315.19c-.79-.41-1.56-.88-2.35-1.29h-213.43c.68.42 1.33.9 2.02 1.29h213.76z"/><path d="M4376.08 4585.72h-848.87c-46.75 0-84.78 38.03-84.78 84.78v719.82c0 46.75 38.03 84.78 84.78 84.78h848.87c46.75 0 84.78-38.04 84.78-84.78V4670.5c0-46.75-38.04-84.78-84.78-84.78zm54.76 762.26v42.34c0 30.25-24.51 54.77-54.77 54.77H3527.2c-30.25 0-54.77-24.52-54.77-54.77V4670.5v-.01c.01-30.19 24.44-54.65 54.61-54.74.05 0 .11-.01.16-.01h848.87c.05 0 .1.01.15.01 30.19.08 54.62 24.55 54.62 54.75v677.48z"/><path d="M3588.88 5315.19h194.61c-.41-.4-.69-.88-1.07-1.29h-191.06c-.84.41-1.64.89-2.48 1.29zM4057.16 5313.9h-244.01c.19 4.24-.21 8.53-1.88 12.63-3.49 8.55-10.64 14.82-19.2 17.38h300.41c-2.14-.62-4.24-1.38-6.2-2.47-12.02-6.67-22.22-16.42-29.12-27.54zM4170.46 4722.59c2.51 3.72 5.72 6.93 9.44 9.44 5.58 3.77 12.3 5.97 19.54 5.97 14.48 0 26.9-8.8 32.21-21.35 1.77-4.18 2.75-8.78 2.75-13.61 0-.88-.19-1.7-.26-2.56-.28-3.88-1.04-7.63-2.49-11.05-5.31-12.55-17.73-21.35-32.21-21.35-7.24 0-13.96 2.2-19.54 5.97a35.039 35.039 0 0 0-9.44 9.44c-3.31 4.9-5.25 10.74-5.71 16.98-.06.86-.26 1.68-.26 2.56 0 7.26 2.2 13.99 5.97 19.56zm28.98-24.49c2.73 0 4.94 2.22 4.94 4.95s-2.22 4.94-4.94 4.94a4.95 4.95 0 0 1-4.94-4.94c0-2.73 2.22-4.95 4.94-4.95z"/><path d="M3542.81 4785.49v558.42h37.69c-10.25-2.99-18.43-11.25-20.89-22.08-2.83-12.48 2.63-25.16 13.21-31.88v-450.57c-9.24-7.14-13.64-19.17-10.8-30.83 3.28-13.45 15.32-22.9 29.16-22.9h172.04c9.16 0 17.82 4.18 23.51 11.35 4.22 5.32 6.44 11.84 6.48 18.5h264.27c1.6-5.13 3.59-10.21 6.45-15.06a29.994 29.994 0 0 1 25.87-14.79h217.96c13.75 0 25.75 9.35 29.11 22.69 2.43 9.67-.18 19.61-6.39 26.84v454.67c10.87 6.81 16.37 19.8 13.29 32.44-2.58 10.62-10.67 18.67-20.76 21.62h37.48v-558.42h-817.68zM4310.53 4735.26c4.18 1.77 8.78 2.75 13.61 2.75 9.65 0 18.39-3.91 24.71-10.24 1.58-1.58 3.01-3.31 4.27-5.17 3.77-5.58 5.97-12.3 5.97-19.54s-2.2-13.97-5.97-19.55a34.714 34.714 0 0 0-4.27-5.17 34.807 34.807 0 0 0-24.71-10.24c-4.83 0-9.42.98-13.61 2.75a35.132 35.132 0 0 0-18.61 18.6c-1.45 3.42-2.21 7.17-2.49 11.05-.06.86-.26 1.68-.26 2.56 0 4.83.98 9.42 2.75 13.61a35.147 35.147 0 0 0 18.61 18.59zm18.55-32.21c0 2.73-2.21 4.94-4.94 4.94-2.73 0-4.95-2.22-4.95-4.94 0-2.73 2.22-4.95 4.95-4.95 2.72 0 4.94 2.22 4.94 4.95zM4050.03 4727.76a34.896 34.896 0 0 0 17.67 9.53c2.28.47 4.63.71 7.04.71 4.82 0 9.42-.98 13.6-2.75a35.132 35.132 0 0 0 18.61-18.6c1.77-4.18 2.75-8.78 2.75-13.61s-.98-9.43-2.75-13.61a35.064 35.064 0 0 0-18.61-18.6 34.812 34.812 0 0 0-13.6-2.75c-2.41 0-4.77.25-7.04.71-2.27.47-4.47 1.15-6.56 2.04a35.06 35.06 0 0 0-18.6 18.6c-1.45 3.42-2.21 7.17-2.49 11.05-.06.86-.26 1.68-.26 2.56 0 4.83.98 9.42 2.75 13.61 1.76 4.19 4.33 7.95 7.49 11.11zm24.72-29.66c2.73 0 4.94 2.22 4.94 4.95a4.944 4.944 0 1 1-4.94-4.95z"/><path d="M3811.28 5326.53c1.67-4.1 2.07-8.39 1.88-12.63-.33-7.46-3.12-14.72-8.67-20.16-2.75-2.69-2-9.45 1.63-14.77 4-5.87 10.64-9.02 14.87-9.02.72 0 1.34.09 1.83.27a63.297 63.297 0 0 0 21.98 3.94c27.33 0 52.09-17.65 61.62-43.93 12.45-34.25-4.62-72.17-38.07-84.5-3.71-1.38-6.37-7.58-5.53-12.99.67-4.31 5.65-9.39 11.08-9.47 17.77-.3 34.32-7.5 46.63-20.28 12.28-12.76 18.88-29.54 18.57-47.28-.61-36-30.36-65.3-66.32-65.3-.16 0-.91.01-1.07.01-5.36 0-11.39-5.22-12.54-10.73-.17-.83-.39-2.79.21-5.98.88-4.51 3.42-7.55 4.93-8.18 16.09-6.82 28.57-20.52 34.27-37.61 5.35-16.01 4.53-33.69-2.29-49.77-11-25.83-35.51-42.5-62.44-42.5-8.11 0-16.02 1.54-23.5 4.58-1.19.48-2.66.74-4.22.74-1.05 0-2.13-.11-3.21-.34-2.82-1.53-5.27-3.59-7.02-5.92-3.54-4.71-4.06-9.53-3.43-12.23.54-2.31.77-4.65.76-6.98-.04-6.65-2.26-13.18-6.48-18.5a30.014 30.014 0 0 0-23.51-11.35H3591.2c-13.84 0-25.88 9.46-29.16 22.9-2.84 11.66 1.56 23.68 10.8 30.83 1.41 1.09 2.91 2.08 4.54 2.92 67.4 34.97 140.03 108.44 141.77 209.78 1.79 104.06-51.75 192.29-143.2 236.04-1.1.52-2.1 1.19-3.11 1.83-10.58 6.73-16.04 19.41-13.21 31.88 2.46 10.83 10.64 19.09 20.89 22.08 2.68.78 5.48 1.29 8.38 1.29h194.61c2.96 0 5.84-.47 8.59-1.29 8.53-2.56 15.69-8.83 19.18-17.38zm41.36-388.66c-11.43 4.82-19.32 16.07-22.27 28.7-.13.56-.39 1.07-.5 1.63-1.09 5.85-1.27 11.87-.09 17.59 3.98 19.17 21.99 34.65 41.79 34.65.2 0 .41 0 .61-.01h.59c15.5 0 28.68 9.85 33.87 23.66 1.43 3.81 2.37 7.86 2.44 12.16.35 20.13-15.62 36.69-35.65 37.03-17.04.26-32.02 11.71-37.95 26.71-1.04 2.64-1.9 5.35-2.33 8.18-2.93 18.88 6.8 39.08 24.81 45.74 8.07 2.98 14.22 8.85 18.07 16.03 4.73 8.83 5.94 19.68 2.16 30.08-5.39 14.87-19.04 24.15-33.4 24.15-3.85 0-7.76-.67-11.57-2.08-3.93-1.45-8.06-2.13-12.24-2.13-14.97 0-30.55 8.74-39.65 22.11-1.35 1.97-2.52 4.04-3.55 6.15-1.16 2.35-2.14 4.76-2.89 7.22-4.17 13.58-1.99 28.2 7.53 38.48.38.41.66.89 1.07 1.29h-194.61c.84-.4 1.64-.88 2.48-1.29a285.6 285.6 0 0 0 58.84-38.48c61.89-52.39 100.54-130.95 98.94-223.85-1.9-110.74-77.98-194.41-157.96-235.9h172.03c-.22.95-.17 1.96-.32 2.93-1.76 11.47 1.33 23.97 8.97 34.14 5.34 7.11 12.57 12.61 20.45 16.13 4.43 1.38 9.1 2.13 13.79 2.13 5.27 0 10.55-.94 15.52-2.95 3.97-1.61 8.09-2.37 12.21-2.37 14.32 0 28.44 9.25 34.82 24.22 1.05 2.48 1.83 4.99 2.39 7.51 3.79 17.03-3.56 34.15-18.4 40.44zM4343.76 5322.29c3.08-12.64-2.42-25.64-13.29-32.44-.69-.44-1.34-.93-2.08-1.31-33.6-17.39-113.6-69.11-130.75-173.7-18.88-114.98 29.92-222.03 124.31-272.73 3.33-1.79 6.16-4.18 8.52-6.92 6.21-7.23 8.82-17.17 6.39-26.84-3.36-13.34-15.35-22.69-29.11-22.69h-217.96c-10.64 0-20.48 5.63-25.87 14.79-2.85 4.85-4.85 9.92-6.45 15.06-8.35 26.75-.19 55.85 22.23 72.41 2.4 1.77 3.84 9.07.59 16.43-3.15 7.16-8.97 10.19-10.75 10.19-4.14-.93-8.48-1.41-12.8-1.41-29.87 0-55.62 22.66-61.23 53.87-6.36 35.16 15.29 69.81 48.26 77.19 1.84.41 5.96 5.49 5.98 12.35.02 5.14-3.89 10.22-7.11 10.79-34.39 6.17-57.54 40.38-51.63 76.26 5.26 32.19 31.81 55.57 63.13 55.57 3.63 0 7.28-.32 10.87-.97h.07c3.39 0 8.43 3.18 10.24 8.35.59 1.69.89 4.11.83 6.74-.18 5.25-2.3 8.52-3.05 9.09-28 18.59-35.5 58.06-17.07 89.86.34.58.79 1.1 1.14 1.67 6.89 11.12 17.09 20.87 29.13 27.54 1.96 1.09 4.06 1.85 6.2 2.47 2.71.79 5.51 1.29 8.35 1.29h213.76c2.91 0 5.71-.51 8.4-1.29 10.08-2.95 18.17-11 20.75-21.62zm-261.77-25.12c-7.81-13.48-7.72-29.46-.95-40.66 2.2-3.64 5.09-6.79 8.67-9.16 10.18-6.75 15.99-19.79 16.45-33.36.14-5.91-.59-11.88-2.5-17.39-.23-.64-.56-1.23-.82-1.86-6.31-15.56-21.51-26.62-37.27-26.62-1.95 0-3.9.17-5.85.51-1.87.34-3.73.5-5.56.5-16.2 0-30.6-12.63-33.51-30.44a38.57 38.57 0 0 1 2.61-21.53c4.47-10.38 13.4-18.28 24.67-20.31 18.34-3.27 31.94-21.37 31.85-40.44-.01-4.52-.74-8.99-2-13.27-4.06-13.76-14.08-25.29-27.43-28.27-17.48-3.92-28.83-22.96-25.28-42.6.22-1.22.6-2.35.93-3.51 4.21-15.3 16.74-25.65 30.77-25.65 2.1 0 4.23.23 6.36.71 2.13.47 4.29.7 6.44.7 15.5 0 31.03-11.78 38.21-28.1 4.11-9.33 5.37-19.7 3.68-29.17-1.68-9.38-6.27-17.86-13.9-23.51-10.56-7.8-14.96-21.07-12.78-34.11.8-4.79 2.42-9.55 5.04-14H4307.78c-83.55 44.88-139.24 132.14-143.74 236.38-.95 21.89.22 44.49 4.02 67.65 10.83 66.05 45.16 118.26 88.15 155.73a296.561 296.561 0 0 0 56.07 38.48c.79.42 1.56.88 2.35 1.29h-213.76c-.69-.39-1.34-.88-2.02-1.29-6.81-4.14-12.89-9.86-16.86-16.7z"/></g></svg>