<svg xmlns="http://www.w3.org/2000/svg" viewBox="0 0 368.51 71.32"><defs><style>.a{fill:#394c60;}.b{fill:#3c9bd6;}.c{fill:#e74f38;}</style></defs><title>clickfunnels-dark-logo</title><path class="a" d="M84.69,5.3H8.95a4.89,4.89,0,0,0-4.89,4.89V71.74a4.89,4.89,0,0,0,4.89,4.89H84.69a4.89,4.89,0,0,0,4.89-4.89V10.19A4.89,4.89,0,0,0,84.69,5.3ZM80.06,10a3.12,3.12,0,1,1-3.12,3.12A3.12,3.12,0,0,1,80.06,10ZM68.93,10a3.12,3.12,0,1,1-3.12,3.12A3.12,3.12,0,0,1,68.93,10ZM57.8,10a3.12,3.12,0,1,1-3.12,3.12A3.12,3.12,0,0,1,57.8,10Zm25.5,60.3h-73V20.45h73V70.27Z" transform="translate(-4.06 -5.3)"/><path class="b" d="M33.06,65a4.45,4.45,0,0,1,5-2,3.39,3.39,0,0,0,4.35-2.2,3.6,3.6,0,0,0-2-4.6,4.2,4.2,0,0,1-2.4-4.56A4.13,4.13,0,0,1,42,48.14a3.63,3.63,0,0,0-.12-7.26,4.3,4.3,0,0,1-4.1-3.46,4.73,4.73,0,0,1,0-1.75,4.07,4.07,0,0,1,2.2-3,3.63,3.63,0,0,0,1.55-4.79A3.56,3.56,0,0,0,37,25.67a4.1,4.1,0,0,1-2.83.08,5.09,5.09,0,0,1-2-1.61,4.65,4.65,0,0,1-.84-3.7H14.67C22.4,24.59,29.76,32.93,29.94,44c0.2,12-6.15,21.69-15.49,26.29H33.27A4.25,4.25,0,0,1,33.06,65Z" transform="translate(-4.06 -5.3)"/><path class="c" d="M56.59,25.25a4.24,4.24,0,0,1,1.06,5.25A4.45,4.45,0,0,1,53,33.23a3.39,3.39,0,0,0-4,2.84,3.6,3.6,0,0,0,2.63,4.25,4.19,4.19,0,0,1,3.07,4.14,4.13,4.13,0,0,1-3.32,4,3.63,3.63,0,0,0,1.23,7.16,4.3,4.3,0,0,1,4.58,2.79,4.75,4.75,0,0,1,.26,1.73,4.08,4.08,0,0,1-1.71,3.33,3.63,3.63,0,0,0-.8,5,5.09,5.09,0,0,0,2,1.8H79.2c-7.08-3.51-13.66-10.11-15.27-19.5-2.28-13.31,4-24.91,14.55-30.33H55.79A3.54,3.54,0,0,0,56.59,25.25Z" transform="translate(-4.06 -5.3)"/><path class="b" d="M63,71L62.35,71h0A1.15,1.15,0,0,0,63,71Z" transform="translate(-4.06 -5.3)"/><path class="a" d="M106.27,40.43a13.26,13.26,0,0,1,.6-4,8.9,8.9,0,0,1,1.88-3.31A8.77,8.77,0,0,1,112,30.86a12.81,12.81,0,0,1,4.81-.81,12.24,12.24,0,0,1,4.19.64,7.71,7.71,0,0,1,2.86,1.74,2.28,2.28,0,0,1,.67,1.55,2.74,2.74,0,0,1-.4,1.64,2.4,2.4,0,0,1-1.38,1,3.09,3.09,0,0,1-2.26-.38,12.08,12.08,0,0,0-1.57-.69,6.2,6.2,0,0,0-2.1-.31,4.58,4.58,0,0,0-3.72,1.48,6,6,0,0,0-1.24,4v3.43a6,6,0,0,0,1.24,4,4.57,4.57,0,0,0,3.72,1.48,8.82,8.82,0,0,0,2.24-.26,6.37,6.37,0,0,0,1.57-.6,2.86,2.86,0,0,1,1.88-.36,2.41,2.41,0,0,1,1.41.76,2.55,2.55,0,0,1,.62,1.43A2.4,2.4,0,0,1,124,52.3a5.56,5.56,0,0,1-2.88,1.88,13.88,13.88,0,0,1-4.31.64A12.82,12.82,0,0,1,112,54a8.76,8.76,0,0,1-3.29-2.24,8.89,8.89,0,0,1-1.88-3.31,13.25,13.25,0,0,1-.6-4v-4Z" transform="translate(-4.06 -5.3)"/><path class="a" d="M129.86,24.19a2,2,0,0,1,.79-1.55,3,3,0,0,1,2.07-.69,2.78,2.78,0,0,1,2,.69,2.08,2.08,0,0,1,.74,1.55v28.4a2.08,2.08,0,0,1-.74,1.55,2.78,2.78,0,0,1-2,.69,3,3,0,0,1-2.07-.69,2,2,0,0,1-.79-1.55V24.19Z" transform="translate(-4.06 -5.3)"/><path class="a" d="M143.05,23.74a2,2,0,0,1,.79-1.54,3,3,0,0,1,2.07-.69,2.79,2.79,0,0,1,2,.69,2.06,2.06,0,0,1,.74,1.54v1.13a2.06,2.06,0,0,1-.74,1.54,2.79,2.79,0,0,1-2,.68,3,3,0,0,1-2.07-.68,2,2,0,0,1-.79-1.54V23.74Zm0,8.55a2,2,0,0,1,.79-1.55,3,3,0,0,1,2.07-.69,2.78,2.78,0,0,1,2,.69,2.08,2.08,0,0,1,.74,1.55v20.3a2.08,2.08,0,0,1-.74,1.55,2.78,2.78,0,0,1-2,.69,3,3,0,0,1-2.07-.69,2,2,0,0,1-.79-1.55V32.29Z" transform="translate(-4.06 -5.3)"/><path class="a" d="M155.06,40.43a13.26,13.26,0,0,1,.6-4,8.9,8.9,0,0,1,1.88-3.31,8.76,8.76,0,0,1,3.29-2.24,12.81,12.81,0,0,1,4.81-.81,12.24,12.24,0,0,1,4.19.64,7.71,7.71,0,0,1,2.86,1.74,2.28,2.28,0,0,1,.67,1.55,2.74,2.74,0,0,1-.4,1.64,2.4,2.4,0,0,1-1.38,1,3.09,3.09,0,0,1-2.26-.38,12.11,12.11,0,0,0-1.57-.69,6.21,6.21,0,0,0-2.1-.31,4.58,4.58,0,0,0-3.72,1.48,6,6,0,0,0-1.24,4v3.43a6,6,0,0,0,1.24,4,4.57,4.57,0,0,0,3.72,1.48,8.82,8.82,0,0,0,2.24-.26,6.39,6.39,0,0,0,1.57-.6,2.86,2.86,0,0,1,1.88-.36,2.41,2.41,0,0,1,1.41.76,2.55,2.55,0,0,1,.62,1.43,2.4,2.4,0,0,1-.52,1.69A5.56,5.56,0,0,1,170,54.18a13.88,13.88,0,0,1-4.31.64,12.82,12.82,0,0,1-4.81-.81,8.75,8.75,0,0,1-3.29-2.24,8.89,8.89,0,0,1-1.88-3.31,13.26,13.26,0,0,1-.6-4v-4Z" transform="translate(-4.06 -5.3)"/><path class="a" d="M179,24.19a2,2,0,0,1,.79-1.55,3,3,0,0,1,2.07-.69,2.78,2.78,0,0,1,2,.69,2.08,2.08,0,0,1,.74,1.55V39.1h2.19l6.91-8.39a2.65,2.65,0,0,1,1.81-.64,2.81,2.81,0,0,1,2,.83,2.36,2.36,0,0,1,.64,2,2.63,2.63,0,0,1-.83,1.67l-6.15,6.77,7.58,9.48a1.89,1.89,0,0,1,.38,1.67,2.83,2.83,0,0,1-1.29,1.76,2.71,2.71,0,0,1-2,.52,2.27,2.27,0,0,1-1.55-.81L186.7,44h-2.1v8.58a2.08,2.08,0,0,1-.74,1.55,2.78,2.78,0,0,1-2,.69,3,3,0,0,1-2.07-.69,2,2,0,0,1-.79-1.55V24.19Z" transform="translate(-4.06 -5.3)"/><path class="a" d="M217.57,30.52V29.09q0-4.48,2.17-6.29T226.1,21a10.24,10.24,0,0,1,2,.19,5.94,5.94,0,0,1,1.69.6,3.6,3.6,0,0,1,1.17,1,2.09,2.09,0,0,1,.43,1.29,2.42,2.42,0,0,1-.55,1.67,2.08,2.08,0,0,1-1.64.62,5.12,5.12,0,0,1-1.45-.19,5.93,5.93,0,0,0-1.64-.19,3.25,3.25,0,0,0-2.33.67,3.17,3.17,0,0,0-.67,2.29v1.62h3.67a2,2,0,0,1,1.43.6,2.05,2.05,0,0,1,.62,1.55,2.18,2.18,0,0,1-.62,1.64,2,2,0,0,1-1.43.6H223.1V52.58a2.08,2.08,0,0,1-.74,1.55,2.71,2.71,0,0,1-1.93.69,3,3,0,0,1-2.1-.69,2.05,2.05,0,0,1-.76-1.55V34.91H215.9a2,2,0,0,1-1.43-.6,2.18,2.18,0,0,1-.62-1.64,2.05,2.05,0,0,1,.62-1.55,2,2,0,0,1,1.43-.6h1.67Z" transform="translate(-4.06 -5.3)"/><path class="a" d="M244.11,54.82a12.38,12.38,0,0,1-4.6-.79,8.89,8.89,0,0,1-5.31-5.53,12.66,12.66,0,0,1-.67-4.17v-12a2,2,0,0,1,.79-1.55,3,3,0,0,1,2.07-.69,2.78,2.78,0,0,1,2,.69,2.08,2.08,0,0,1,.74,1.55v12.2a4.84,4.84,0,0,0,1.43,3.86,5.26,5.26,0,0,0,3.57,1.24,5.17,5.17,0,0,0,3.55-1.24,4.89,4.89,0,0,0,1.41-3.86V32.33a2.06,2.06,0,0,1,.76-1.55,2.87,2.87,0,0,1,2-.69,3,3,0,0,1,2,.69,2,2,0,0,1,.81,1.55v12a12.69,12.69,0,0,1-.67,4.17A8.89,8.89,0,0,1,248.71,54,12.39,12.39,0,0,1,244.11,54.82Z" transform="translate(-4.06 -5.3)"/><path class="a" d="M271.94,30a13.51,13.51,0,0,1,4.6.71,9,9,0,0,1,3.31,2,8.32,8.32,0,0,1,2,3.17,12.06,12.06,0,0,1,.67,4.1V52.58a2,2,0,0,1-.81,1.55,3,3,0,0,1-2,.69,2.87,2.87,0,0,1-2-.69,2.06,2.06,0,0,1-.76-1.55V40.34a4.89,4.89,0,0,0-1.41-3.86,5.17,5.17,0,0,0-3.55-1.24,5.26,5.26,0,0,0-3.57,1.24,4.84,4.84,0,0,0-1.43,3.86V52.58a2.08,2.08,0,0,1-.74,1.55,2.78,2.78,0,0,1-2,.69,3,3,0,0,1-2.07-.69,2,2,0,0,1-.79-1.55V40.53a12.66,12.66,0,0,1,.67-4.17,8.9,8.9,0,0,1,5.31-5.53A12.39,12.39,0,0,1,271.94,30Z" transform="translate(-4.06 -5.3)"/><path class="a" d="M299.76,30a13.5,13.5,0,0,1,4.6.71,9,9,0,0,1,3.31,2,8.3,8.3,0,0,1,2,3.17,12,12,0,0,1,.67,4.1V52.58a2,2,0,0,1-.81,1.55,3.05,3.05,0,0,1-2,.69,2.87,2.87,0,0,1-2-.69,2.05,2.05,0,0,1-.76-1.55V40.34a4.89,4.89,0,0,0-1.41-3.86,5.17,5.17,0,0,0-3.55-1.24,5.26,5.26,0,0,0-3.57,1.24,4.84,4.84,0,0,0-1.43,3.86V52.58a2.08,2.08,0,0,1-.74,1.55,2.78,2.78,0,0,1-2,.69,3,3,0,0,1-2.07-.69,2,2,0,0,1-.79-1.55V40.53a12.66,12.66,0,0,1,.67-4.17,8.9,8.9,0,0,1,5.31-5.53A12.39,12.39,0,0,1,299.76,30Z" transform="translate(-4.06 -5.3)"/><path class="a" d="M336.74,39.72a4.54,4.54,0,0,1-.86,3.15,3.81,3.81,0,0,1-2.86.9H321.73V45a4.92,4.92,0,0,0,1.41,3.67,5.43,5.43,0,0,0,4,1.38,15.32,15.32,0,0,0,2.36-.17,6.54,6.54,0,0,0,1.69-.45l1.29-.67a2.44,2.44,0,0,1,1.14-.33,1.9,1.9,0,0,1,1.48.57,2.29,2.29,0,0,1,.57,1.48A2.33,2.33,0,0,1,335,52a6.46,6.46,0,0,1-1.81,1.38,12,12,0,0,1-2.69,1,13.07,13.07,0,0,1-3.31.4,12.37,12.37,0,0,1-4.43-.76,11.11,11.11,0,0,1-3.45-2A9.15,9.15,0,0,1,317,49a8.62,8.62,0,0,1-.81-3.69V40.24a10.14,10.14,0,0,1,3-7.19,10.29,10.29,0,0,1,3.29-2.19,10.61,10.61,0,0,1,4.19-.81,11,11,0,0,1,4.62.88,9,9,0,0,1,4.91,5.41A10.66,10.66,0,0,1,336.74,39.72Zm-10.15-5.05A4.43,4.43,0,0,0,323.18,36a5.83,5.83,0,0,0-1.45,3.6h9.72V38.91a3.83,3.83,0,0,0-1.36-3.1A5.25,5.25,0,0,0,326.59,34.67Z" transform="translate(-4.06 -5.3)"/><path class="a" d="M343.07,24.19a2,2,0,0,1,.79-1.55,3,3,0,0,1,2.07-.69,2.78,2.78,0,0,1,2,.69,2.08,2.08,0,0,1,.74,1.55v28.4a2.08,2.08,0,0,1-.74,1.55,2.78,2.78,0,0,1-2,.69,3,3,0,0,1-2.07-.69,2,2,0,0,1-.79-1.55V24.19Z" transform="translate(-4.06 -5.3)"/><path class="a" d="M355.08,51.39a2.13,2.13,0,0,1-.19-0.71,2.24,2.24,0,0,1,.07-0.86,2.67,2.67,0,0,1,.38-0.81,1.57,1.57,0,0,1,.74-0.57,3,3,0,0,1,1.17-.29,2.19,2.19,0,0,1,.88.17,3.32,3.32,0,0,1,.71.43l0.67,0.5a7.19,7.19,0,0,0,4.34,1,4.11,4.11,0,0,0,2.45-.67,2.16,2.16,0,0,0,.07-3.5A7.89,7.89,0,0,0,364.2,45q-1.31-.45-2.81-0.91a12.35,12.35,0,0,1-2.81-1.24,7,7,0,0,1-2.17-2,5.77,5.77,0,0,1-.86-3.34,6.89,6.89,0,0,1,2.33-5.41A9.35,9.35,0,0,1,364.32,30a14,14,0,0,1,3.15.31,10.64,10.64,0,0,1,2.22.74,5.1,5.1,0,0,1,1.38.93,3.26,3.26,0,0,1,.69.93A2.89,2.89,0,0,1,372,34.5a1.75,1.75,0,0,1-.74,1.36,2.18,2.18,0,0,1-1.76.4,6.07,6.07,0,0,1-1.48-.6q-0.38-.19-1.21-0.55a6.66,6.66,0,0,0-2.5-.36,3.26,3.26,0,0,0-2.31.74,2.42,2.42,0,0,0-.79,1.83,1.56,1.56,0,0,0,.83,1.41,10,10,0,0,0,2.1.91l2.74,0.86a10.62,10.62,0,0,1,2.74,1.29,6.43,6.43,0,0,1,2.93,5.79,6.54,6.54,0,0,1-2.33,5.29,9.64,9.64,0,0,1-6.38,2,15.77,15.77,0,0,1-2.88-.26,13.19,13.19,0,0,1-2.57-.74,9.69,9.69,0,0,1-2-1.1A4.61,4.61,0,0,1,355.08,51.39Z" transform="translate(-4.06 -5.3)"/></svg>